G04*
G04 #@! TF.GenerationSoftware,Altium Limited,Altium Designer,18.1.9 (240)*
G04*
G04 Layer_Physical_Order=1*
G04 Layer_Color=255*
%FSLAX25Y25*%
%MOIN*%
G70*
G01*
G75*
%ADD12C,0.01000*%
G04:AMPARAMS|DCode=14|XSize=150mil|YSize=65mil|CornerRadius=0mil|HoleSize=0mil|Usage=FLASHONLY|Rotation=90.000|XOffset=0mil|YOffset=0mil|HoleType=Round|Shape=Octagon|*
%AMOCTAGOND14*
4,1,8,0.01625,0.07500,-0.01625,0.07500,-0.03250,0.05875,-0.03250,-0.05875,-0.01625,-0.07500,0.01625,-0.07500,0.03250,-0.05875,0.03250,0.05875,0.01625,0.07500,0.0*
%
%ADD14OCTAGOND14*%

%ADD15O,0.06500X0.15000*%
%ADD16R,0.10000X0.10000*%
%ADD17R,0.05118X0.06299*%
%ADD25C,0.02000*%
%ADD26C,0.04000*%
%ADD27R,0.05906X0.05906*%
%ADD28C,0.05906*%
%ADD29C,0.06000*%
%ADD30C,0.04000*%
D12*
X115500Y48000D02*
G03*
X111207Y52950I-5000J0D01*
G01*
X105550Y47293D02*
G03*
X115500Y48000I4950J707D01*
G01*
X137453Y39000D02*
G03*
X137453Y39000I-4953J0D01*
G01*
X100500Y48000D02*
G03*
X90550Y48707I-5000J0D01*
G01*
X96207Y43050D02*
G03*
X100500Y48000I-707J4950D01*
G01*
X92000Y40500D02*
G03*
X94828Y41672I0J4000D01*
G01*
X92000Y40500D02*
G03*
X94828Y41672I0J4000D01*
G01*
X82750Y24750D02*
G03*
X82000Y27312I-4750J0D01*
G01*
Y33000D02*
G03*
X74000Y33000I-4000J0D01*
G01*
X73250Y24750D02*
G03*
X72000Y28150I-5250J0D01*
G01*
X104828Y29828D02*
G03*
X98763Y24650I-2828J-2828D01*
G01*
X104828Y29828D02*
G03*
X98763Y24650I-2828J-2828D01*
G01*
X109331D02*
G03*
X108328Y26328I-3831J-1150D01*
G01*
X109331Y24650D02*
G03*
X108328Y26328I-3831J-1150D01*
G01*
X114500Y7000D02*
G03*
X117328Y8172I0J4000D01*
G01*
X114500Y7000D02*
G03*
X117328Y8172I0J4000D01*
G01*
X74000Y27312D02*
G03*
X73250Y24750I4000J-2562D01*
G01*
Y16250D02*
G03*
X82750Y16250I4750J0D01*
G01*
X72138Y13019D02*
G03*
X73250Y16250I-4138J3231D01*
G01*
X101172Y8172D02*
G03*
X104000Y7000I2828J2828D01*
G01*
X101172Y8172D02*
G03*
X104000Y7000I2828J2828D01*
G01*
X85956Y2000D02*
G03*
X86848Y2672I-1936J3500D01*
G01*
X85956Y2000D02*
G03*
X86848Y2672I-1936J3500D01*
G01*
X71172D02*
G03*
X72063Y2000I2828J2828D01*
G01*
X71172Y2672D02*
G03*
X72063Y2000I2828J2828D01*
G01*
X35063Y62500D02*
G03*
X34172Y61828I1936J-3500D01*
G01*
X35063Y62500D02*
G03*
X34172Y61828I1936J-3500D01*
G01*
X46000Y48500D02*
G03*
X37214Y49871I-4500J0D01*
G01*
X42871Y44214D02*
G03*
X46000Y48500I-1371J4286D01*
G01*
X23500Y44500D02*
G03*
X31450Y47793I3000J4000D01*
G01*
X28691Y41348D02*
G03*
X27520Y38520I2828J-2828D01*
G01*
X28691Y41348D02*
G03*
X27520Y38520I2828J-2828D01*
G01*
X25793Y53450D02*
G03*
X23500Y52500I707J-4950D01*
G01*
X16000D02*
G03*
X13172Y51328I0J-4000D01*
G01*
X16000Y52500D02*
G03*
X13172Y51328I0J-4000D01*
G01*
X24348Y32328D02*
G03*
X21520Y33500I-2828J-2828D01*
G01*
X24348Y32328D02*
G03*
X21520Y33500I-2828J-2828D01*
G01*
X6237Y44394D02*
G03*
X11894Y38737I763J-4894D01*
G01*
X49172Y17671D02*
G03*
X52000Y16500I2828J2828D01*
G01*
X46500Y22000D02*
G03*
X47672Y19172I4000J0D01*
G01*
X49172Y17671D02*
G03*
X52000Y16500I2828J2828D01*
G01*
X46500Y22000D02*
G03*
X47672Y19172I4000J0D01*
G01*
X41828Y12172D02*
G03*
X42947Y14350I-2828J2828D01*
G01*
X41828Y12172D02*
G03*
X42947Y14350I-2828J2828D01*
G01*
X64000Y11500D02*
G03*
X65172Y8672I4000J0D01*
G01*
X64000Y11500D02*
G03*
X65172Y8672I4000J0D01*
G01*
X63250Y14014D02*
G03*
X64000Y12849I4750J2236D01*
G01*
X32672Y14328D02*
G03*
X38328Y8672I2828J-2828D01*
G01*
X32672Y14328D02*
G03*
X38328Y8672I2828J-2828D01*
G01*
X132000Y62500D02*
X137500Y57000D01*
X114682Y50740D02*
X137500D01*
X113773Y51780D02*
X137500D01*
X115456Y48660D02*
X137500D01*
X115486Y47620D02*
X137500D01*
X115202Y49700D02*
X137500D01*
X113700Y51842D02*
Y62500D01*
X114740Y50650D02*
Y62500D01*
X112660Y52509D02*
Y62500D01*
X132420Y43952D02*
Y62080D01*
X133460Y43859D02*
Y61040D01*
X131380Y43824D02*
Y62500D01*
X130340Y43457D02*
Y62500D01*
X129300Y42780D02*
Y62500D01*
X128260Y41560D02*
Y62500D01*
X135540Y42910D02*
Y58960D01*
X136580Y41808D02*
Y57920D01*
X134500Y43531D02*
Y60000D01*
X125140Y27297D02*
Y62500D01*
X124100Y26257D02*
Y62500D01*
X123060Y25217D02*
Y62500D01*
X127220Y29377D02*
Y62500D01*
X126180Y28337D02*
Y62500D01*
X104057Y60100D02*
X134400D01*
X105097Y59060D02*
X135440D01*
X103017Y61140D02*
X133360D01*
X107177Y56980D02*
X137500D01*
X108217Y55940D02*
X137500D01*
X106137Y58020D02*
X136480D01*
X106420Y57737D02*
Y62500D01*
X107460Y56697D02*
Y62500D01*
X105380Y58777D02*
Y62500D01*
X101977Y62180D02*
X132320D01*
X108500Y55657D02*
Y62500D01*
X101646D02*
X132000D01*
X110297Y53860D02*
X137500D01*
X111620Y52873D02*
Y62500D01*
X109257Y54900D02*
X137500D01*
X111829Y52820D02*
X137500D01*
X109540Y54617D02*
Y62500D01*
X110580Y53577D02*
Y62500D01*
X101828Y62328D02*
X111207Y52950D01*
X100486Y47620D02*
X105223D01*
X97343Y55500D02*
X105550Y47293D01*
X115294Y46580D02*
X137500D01*
X114853Y45540D02*
X137500D01*
X114071Y44500D02*
X137500D01*
X136082Y42420D02*
X137500D01*
X136843Y41380D02*
X137500D01*
X134654Y43460D02*
X137500D01*
X137122Y37220D02*
X137500D01*
X112595Y43460D02*
X130346D01*
X136572Y36180D02*
X137500D01*
X135603Y35140D02*
X137500D01*
X133221Y34100D02*
X137500D01*
X135540Y33953D02*
Y35090D01*
X136580Y33953D02*
Y36192D01*
X129300Y33953D02*
Y35220D01*
X130340Y33953D02*
Y34543D01*
X134500Y33953D02*
Y34469D01*
X127547Y33953D02*
X137453D01*
X128260D02*
Y36440D01*
X127547Y29704D02*
Y33953D01*
X108500Y26146D02*
Y43417D01*
X108787Y25780D02*
X123623D01*
X107837Y26820D02*
X124663D01*
X95577Y42420D02*
X128918D01*
X94503Y41380D02*
X128157D01*
X75000Y40340D02*
X127732D01*
X80426Y36180D02*
X128428D01*
X81379Y35140D02*
X129397D01*
X72000Y37220D02*
X127878D01*
X100294Y46580D02*
X105706D01*
X99853Y45540D02*
X106147D01*
X99071Y44500D02*
X106929D01*
X97595Y43460D02*
X108405D01*
X75000Y39300D02*
X127556D01*
X75000Y38260D02*
X127603D01*
X81999Y33060D02*
X127547D01*
X82000Y32020D02*
X127547D01*
X81846Y34100D02*
X131779D01*
X104712Y29940D02*
X127547D01*
X105757Y28900D02*
X126743D01*
X102400Y30980D02*
X127547D01*
X106420Y28237D02*
Y45110D01*
X107460Y27197D02*
Y44030D01*
X105380Y29277D02*
Y47463D01*
X106797Y27860D02*
X125703D01*
X104828Y29828D02*
X108328Y26328D01*
X103300Y60857D02*
Y62500D01*
X104340Y59817D02*
Y62500D01*
X102260Y61897D02*
Y62500D01*
X98773Y51780D02*
X101063D01*
X99140Y51428D02*
Y53703D01*
X96829Y52820D02*
X100023D01*
X94980Y52973D02*
Y55500D01*
X93940Y52750D02*
Y55500D01*
X92900Y52271D02*
Y55500D01*
X97060Y52750D02*
Y55500D01*
X98100Y52271D02*
Y54743D01*
X96020Y52973D02*
Y55500D01*
X102260Y30992D02*
Y50583D01*
X101220Y30923D02*
Y51623D01*
X99682Y50740D02*
X102103D01*
X100456Y48660D02*
X104183D01*
X103300Y30783D02*
Y49543D01*
X100202Y49700D02*
X103143D01*
X91860Y51428D02*
Y55500D01*
X90820Y49760D02*
Y55500D01*
X89780Y48500D02*
Y55500D01*
X100180Y49760D02*
Y52663D01*
X84580Y48500D02*
Y55500D01*
X85620Y48500D02*
Y55500D01*
X83540Y48500D02*
Y55500D01*
X75000Y49700D02*
X90798D01*
X75000Y48660D02*
X90503D01*
X75000Y50740D02*
X91318D01*
X71060Y51500D02*
Y55500D01*
X72100Y51500D02*
Y55500D01*
X70020Y51500D02*
Y55500D01*
X74180Y51500D02*
Y55500D01*
X82500Y48500D02*
Y55500D01*
X73140Y51500D02*
Y55500D01*
X80420Y48500D02*
Y55500D01*
X81460Y48500D02*
Y55500D01*
X79380Y48500D02*
Y55500D01*
X87700Y48500D02*
Y55500D01*
X88740Y48500D02*
Y55500D01*
X86660Y48500D02*
Y55500D01*
X77300Y48500D02*
Y55500D01*
X78340Y48500D02*
Y55500D01*
X76260Y48500D02*
Y55500D01*
X75220Y48500D02*
Y55500D01*
X75000Y48500D02*
Y51500D01*
X100180Y30562D02*
Y46240D01*
X94828Y41672D02*
X96207Y43050D01*
X82000Y30980D02*
X101601D01*
X78340Y36985D02*
Y40500D01*
X77300Y36938D02*
Y40500D01*
X76260Y36602D02*
Y40500D01*
X80420Y36185D02*
Y40500D01*
X81460Y35007D02*
Y40500D01*
X79380Y36754D02*
Y40500D01*
X104340Y30244D02*
Y48503D01*
X99140Y29796D02*
Y44572D01*
X98100Y27889D02*
Y43729D01*
X82000Y28900D02*
X98480D01*
X82637Y25780D02*
X98191D01*
X82000Y29940D02*
X99288D01*
X82000Y27312D02*
Y33000D01*
X82500Y26270D02*
Y40500D01*
X82000Y27860D02*
X98093D01*
X82275Y26820D02*
X98004D01*
X75000Y40500D02*
X92000D01*
X75000Y37500D02*
Y40500D01*
Y48500D02*
X90343D01*
X75220Y35876D02*
Y40500D01*
X72000Y36180D02*
X75574D01*
X72000Y37500D02*
X75000D01*
X74180Y34186D02*
Y37500D01*
X72000Y35140D02*
X74621D01*
X72000Y33060D02*
X74001D01*
X72000Y34100D02*
X74154D01*
X72000Y32020D02*
X74000D01*
Y27312D02*
Y33000D01*
X72000Y30980D02*
X74000D01*
X72000Y28900D02*
X74000D01*
X72230Y27860D02*
X74000D01*
X72000Y29940D02*
X74000D01*
X72100Y28029D02*
Y37500D01*
X73140Y25819D02*
Y37500D01*
X72000Y28150D02*
Y37500D01*
X72825Y26820D02*
X73725D01*
X133204Y24047D02*
X137453D01*
X132857Y23700D02*
X137500D01*
X131817Y22660D02*
X137500D01*
X130777Y21620D02*
X137500D01*
X129737Y20580D02*
X137500D01*
X128697Y19540D02*
X137500D01*
X119940Y22097D02*
Y62500D01*
X118900Y21057D02*
Y62500D01*
X117860Y20017D02*
Y62500D01*
X122020Y24177D02*
Y62500D01*
X137453Y24047D02*
Y33953D01*
X120980Y23137D02*
Y62500D01*
X137500Y6500D02*
Y57000D01*
X136580Y5580D02*
Y24047D01*
X135540Y4540D02*
Y24047D01*
X134500Y3500D02*
Y24047D01*
X133460Y2460D02*
Y24047D01*
X127657Y18500D02*
X137500D01*
X131380Y2000D02*
Y22223D01*
X132420Y2000D02*
Y23263D01*
X130340Y2000D02*
Y21183D01*
X129300Y2000D02*
Y20143D01*
X128260Y2000D02*
Y19103D01*
X110059Y23700D02*
X121543D01*
X110059Y22660D02*
X120503D01*
X109303Y24740D02*
X122583D01*
X110059Y20580D02*
X118423D01*
X110059Y19540D02*
X117383D01*
X110059Y21620D02*
X119463D01*
X109540Y24650D02*
Y43093D01*
X109331Y24650D02*
X110059D01*
X116820Y18977D02*
Y62500D01*
X115780Y17937D02*
Y62500D01*
X114740Y16897D02*
Y45350D01*
X112843Y15000D02*
X127547Y29704D01*
X117328Y8172D02*
X133204Y24047D01*
X110059Y18500D02*
X116343D01*
X113700Y15857D02*
Y44158D01*
X112660Y15000D02*
Y43491D01*
X111620Y15000D02*
Y43127D01*
X110580Y15000D02*
Y43001D01*
X110059Y15000D02*
Y24650D01*
X126617Y17460D02*
X137500D01*
X125577Y16420D02*
X137500D01*
X124537Y15380D02*
X137500D01*
X123497Y14340D02*
X137500D01*
X122457Y13300D02*
X137500D01*
X121417Y12260D02*
X137500D01*
X124100Y2000D02*
Y14943D01*
X127220Y2000D02*
Y18063D01*
X120377Y11220D02*
X137500D01*
X119337Y10180D02*
X137500D01*
X118297Y9140D02*
X137500D01*
X117255Y8100D02*
X137500D01*
X125140Y2000D02*
Y15983D01*
X126180Y2000D02*
Y17023D01*
X123060Y2000D02*
Y13903D01*
X122020Y2000D02*
Y12863D01*
X133000Y2000D02*
X137500Y6500D01*
X120980Y2000D02*
Y11823D01*
X118900Y2000D02*
Y9743D01*
X119940Y2000D02*
Y10783D01*
X117860Y2000D02*
Y8703D01*
X116820Y2000D02*
Y7741D01*
X115780Y2000D02*
Y7210D01*
X115190Y7060D02*
X137500D01*
X90197Y6020D02*
X137020D01*
X89157Y4980D02*
X135980D01*
X88117Y3940D02*
X134940D01*
X87076Y2900D02*
X133900D01*
X110059Y16420D02*
X114263D01*
X110059Y15380D02*
X113223D01*
X110059Y17460D02*
X115303D01*
X110059Y15000D02*
X112843D01*
X104000Y7000D02*
X114500D01*
X113700Y2000D02*
Y7000D01*
X114740Y2000D02*
Y7007D01*
X112660Y2000D02*
Y7000D01*
X110580Y2000D02*
Y7000D01*
X111620Y2000D02*
Y7000D01*
X85956Y2000D02*
X133000D01*
X106420D02*
Y7000D01*
X107460Y2000D02*
Y7000D01*
X105380Y2000D02*
Y7000D01*
X109540Y2000D02*
Y7000D01*
X108500Y2000D02*
Y7000D01*
X96020Y24650D02*
Y42863D01*
X97060Y24650D02*
Y43250D01*
X94980Y24650D02*
Y41823D01*
X93461Y24650D02*
X98763D01*
X98100D02*
Y26111D01*
X82750Y24740D02*
X98700D01*
X93940Y24650D02*
Y41002D01*
X93461Y20598D02*
Y24650D01*
X92900Y20037D02*
Y40603D01*
X82750Y22660D02*
X93461D01*
X82750Y21620D02*
X93461D01*
X82750Y23700D02*
X93461D01*
X91860Y18997D02*
Y40500D01*
X90820Y17957D02*
Y40500D01*
X89780Y16917D02*
Y40500D01*
X88740Y15877D02*
Y40500D01*
X87700Y14837D02*
Y40500D01*
X82750Y18500D02*
X91363D01*
X86660Y13797D02*
Y40500D01*
X85620Y12757D02*
Y40500D01*
X84580Y11717D02*
Y40500D01*
X83540Y10677D02*
Y40500D01*
X82750Y16250D02*
Y24750D01*
Y19540D02*
X92403D01*
X82750Y17460D02*
X90323D01*
X82750Y20580D02*
X93443D01*
X82750Y16420D02*
X89283D01*
X82670Y15380D02*
X88243D01*
X82349Y14340D02*
X87203D01*
X73250Y16250D02*
Y24750D01*
Y16250D02*
Y24750D01*
X72890Y14340D02*
X73651D01*
X82363Y9500D02*
X93461Y20598D01*
X81723Y13300D02*
X86163D01*
X82500Y9637D02*
Y14729D01*
X81460Y9500D02*
Y12995D01*
X73140Y12017D02*
Y15181D01*
X74180Y10977D02*
Y13427D01*
X72343Y13300D02*
X74277D01*
X72138Y13019D02*
X75657Y9500D01*
X96760Y12583D02*
X101172Y8172D01*
X92277Y8100D02*
X101245D01*
X104340Y2000D02*
Y7000D01*
X91237Y7060D02*
X103310D01*
X96437Y12260D02*
X97083D01*
X99140Y2000D02*
Y10203D01*
X95397Y11220D02*
X98123D01*
X94357Y10180D02*
X99163D01*
X100180Y2000D02*
Y9163D01*
X93317Y9140D02*
X100203D01*
X97060Y2000D02*
Y12283D01*
X98100Y2000D02*
Y11243D01*
X96020Y2000D02*
Y11843D01*
X102260Y2000D02*
Y7398D01*
X103300Y2000D02*
Y7062D01*
X101220Y2000D02*
Y8124D01*
X93940Y2000D02*
Y9764D01*
X94980Y2000D02*
Y10803D01*
X92900Y2000D02*
Y8723D01*
X91860Y2000D02*
Y7683D01*
X90820Y2000D02*
Y6643D01*
X80578Y12260D02*
X85123D01*
X80420Y9500D02*
Y12162D01*
X79380Y9500D02*
Y11705D01*
X74977Y10180D02*
X83043D01*
X75657Y9500D02*
X82363D01*
X73937Y11220D02*
X84083D01*
X75220Y9937D02*
Y12398D01*
X76260Y9500D02*
Y11830D01*
X72897Y12260D02*
X75422D01*
X78340Y9500D02*
Y11512D01*
X77300Y9500D02*
Y11552D01*
X88740Y2000D02*
Y4563D01*
X89780Y2000D02*
Y5604D01*
X86848Y2672D02*
X96760Y12583D01*
X87700Y2000D02*
Y3523D01*
X71060Y2000D02*
Y2783D01*
X70020Y2000D02*
Y3823D01*
X86660Y2000D02*
Y2495D01*
X66657Y55500D02*
X97343D01*
X66057Y54900D02*
X97943D01*
X45843Y55000D02*
X46500Y54343D01*
X65017Y53860D02*
X98983D01*
X63977Y52820D02*
X94170D01*
X42760D02*
X46500D01*
X41940Y52978D02*
Y55000D01*
X40900Y52960D02*
Y55000D01*
X39860Y52691D02*
Y55000D01*
X38657D02*
X45843D01*
X42980Y52750D02*
Y55000D01*
X38557Y54900D02*
X45943D01*
X67940Y51500D02*
Y55500D01*
X68980Y51500D02*
Y55500D01*
X66900Y51500D02*
Y55500D01*
X64820Y51500D02*
Y53663D01*
X65860Y51500D02*
Y54703D01*
X62657Y51500D02*
X66657Y55500D01*
X44020Y52228D02*
Y55000D01*
X45060Y51253D02*
Y55000D01*
X38820Y52115D02*
Y55000D01*
X63780Y51500D02*
Y52623D01*
X7000Y62500D02*
X35063D01*
X7000Y62180D02*
X34574D01*
X33620Y61277D02*
Y62500D01*
X6140Y61140D02*
X33483D01*
X32580Y60237D02*
Y62500D01*
X31540Y59197D02*
Y62500D01*
X30500Y58157D02*
Y62500D01*
X5100Y60100D02*
X32443D01*
X4060Y59060D02*
X31403D01*
X3020Y58020D02*
X30363D01*
X37517Y53860D02*
X46500D01*
X37780Y51032D02*
Y54123D01*
X31450Y47793D02*
X38657Y55000D01*
X36477Y52820D02*
X40240D01*
X35437Y51780D02*
X38419D01*
X29460Y57117D02*
Y62500D01*
X25793Y53450D02*
X34172Y61828D01*
X2000Y56980D02*
X29323D01*
X36740Y49397D02*
Y53083D01*
X35700Y48357D02*
Y52043D01*
X62937Y51780D02*
X92227D01*
X62657Y51500D02*
X75000D01*
X44581Y51780D02*
X46500D01*
X45837Y49700D02*
X46500D01*
X45997Y48660D02*
X46500D01*
X45403Y50740D02*
X46500D01*
X45913Y47620D02*
X46500D01*
X45570Y46580D02*
X46500D01*
X44889Y45540D02*
X46500D01*
X43562Y44500D02*
X46500D01*
X42117Y43460D02*
X46500D01*
X41077Y42420D02*
X46500D01*
X40037Y41380D02*
X46500D01*
X38997Y40340D02*
X46500D01*
X37957Y39300D02*
X46500D01*
X35520Y35140D02*
X46500D01*
X36917Y38260D02*
X46500D01*
X35877Y37220D02*
X46500D01*
X35520Y34100D02*
X46500D01*
X34397Y50740D02*
X37597D01*
X34660Y47317D02*
Y51003D01*
X33357Y49700D02*
X37043D01*
X32317Y48660D02*
X36003D01*
X31422Y47620D02*
X34963D01*
X31117Y46580D02*
X33923D01*
X33620Y46277D02*
Y49963D01*
X32580Y45237D02*
Y48923D01*
X31540Y44197D02*
Y47883D01*
X30530Y45540D02*
X32883D01*
X29500Y44500D02*
X31843D01*
X30500Y43157D02*
Y45500D01*
X35520Y36863D02*
X42871Y44214D01*
X28691Y41348D02*
X37214Y49871D01*
X35520Y36180D02*
X46500D01*
X35520Y33060D02*
X46500D01*
X16617Y43460D02*
X30803D01*
X15577Y42420D02*
X29763D01*
X29460Y42117D02*
Y44470D01*
X14537Y41380D02*
X28723D01*
X28420Y56077D02*
Y62500D01*
X27380Y55037D02*
Y62500D01*
X26340Y53997D02*
Y62500D01*
X25300Y53354D02*
Y62500D01*
X24260Y52970D02*
Y62500D01*
X20100Y52500D02*
Y62500D01*
X21140Y52500D02*
Y62500D01*
X19060Y52500D02*
Y62500D01*
X22180Y52500D02*
Y62500D01*
X23220Y52500D02*
Y62500D01*
X16000Y52500D02*
X23500D01*
X16980D02*
Y62500D01*
X18020Y52500D02*
Y62500D01*
X19060Y33500D02*
Y44500D01*
X21140Y33500D02*
Y44500D01*
X13860Y51879D02*
Y62500D01*
X12820Y50977D02*
Y62500D01*
X11780Y49937D02*
Y62500D01*
X15940Y52500D02*
Y62500D01*
X14900Y52346D02*
Y62500D01*
X2000Y54900D02*
X27243D01*
X2000Y53860D02*
X26203D01*
X2000Y55940D02*
X28283D01*
X2000Y51780D02*
X13711D01*
X2000Y50740D02*
X12583D01*
X2000Y52820D02*
X23982D01*
X10740Y48897D02*
Y62500D01*
X9700Y47857D02*
Y62500D01*
X7000Y62000D02*
Y62500D01*
X2000Y49700D02*
X11543D01*
X2000Y48660D02*
X10503D01*
X2000Y57000D02*
X7000Y62000D01*
X8660Y46817D02*
Y62500D01*
X7620Y45777D02*
Y62500D01*
X6237Y44394D02*
X13172Y51328D01*
X2000Y46580D02*
X8423D01*
X2000Y45540D02*
X7383D01*
X2000Y47620D02*
X9463D01*
X6580Y44737D02*
Y61580D01*
X5540Y44233D02*
Y60540D01*
X4500Y43775D02*
Y59500D01*
X3460Y42964D02*
Y58460D01*
X2420Y41385D02*
Y57420D01*
X17657Y44500D02*
X23500D01*
X28420Y41048D02*
Y43883D01*
X17657Y44500D02*
X23500D01*
X13497Y40340D02*
X27958D01*
X12457Y39300D02*
X27597D01*
X11795Y38260D02*
X27520D01*
X18020Y33500D02*
Y44500D01*
X20100Y33500D02*
Y44500D01*
X11894Y38737D02*
X17657Y44500D01*
X15940Y33500D02*
Y42783D01*
X16980Y33500D02*
Y43823D01*
X11780Y33500D02*
Y38203D01*
X23220Y33121D02*
Y44500D01*
X24260Y32414D02*
Y44030D01*
X22180Y33445D02*
Y44500D01*
X23344Y33060D02*
X27520D01*
X13860Y33500D02*
Y40703D01*
X14900Y33500D02*
Y41743D01*
X12820Y33500D02*
Y39663D01*
X11453Y33500D02*
X21520D01*
X11453D02*
Y33953D01*
X11397Y37220D02*
X27520D01*
X2000Y44500D02*
X6343D01*
X10675Y36180D02*
X27520D01*
X9349Y35140D02*
X27520D01*
X2000D02*
X4651D01*
X2000Y42420D02*
X3000D01*
X2000Y41380D02*
X2418D01*
X2000Y43460D02*
X4025D01*
X2000Y36180D02*
X3325D01*
X2000Y37220D02*
X2603D01*
X9700Y33953D02*
Y35348D01*
X10740Y33953D02*
Y36253D01*
X8660Y33953D02*
Y34834D01*
X2547Y33953D02*
X11453D01*
X7620D02*
Y34586D01*
X2000Y34100D02*
X27520D01*
X4500Y33953D02*
Y35225D01*
X5540Y33953D02*
Y34767D01*
X3460Y33953D02*
Y36036D01*
X6580Y33953D02*
Y34565D01*
X2000Y33060D02*
X2547D01*
X47672Y19172D02*
X49172Y17671D01*
X52000Y16500D02*
X52750D01*
X43559Y15380D02*
X52750D01*
X43559Y23700D02*
X46500D01*
Y22000D02*
Y54343D01*
X43559Y22660D02*
X46500D01*
X43559Y21620D02*
X46518D01*
X43559Y20580D02*
X46760D01*
X49220Y2000D02*
Y17624D01*
X50260Y2000D02*
Y16898D01*
X48180Y2000D02*
Y18663D01*
X52750Y13625D02*
Y16500D01*
X52340Y2000D02*
Y16500D01*
X51300Y2000D02*
Y16562D01*
X45060Y2000D02*
Y45748D01*
X46100Y2000D02*
Y54743D01*
X44020Y2000D02*
Y44772D01*
X47140Y2000D02*
Y19830D01*
X43559Y14350D02*
Y24650D01*
X35520Y30980D02*
X46500D01*
X35520Y29940D02*
X46500D01*
X35520Y32020D02*
X46500D01*
X35520Y27860D02*
X46500D01*
X35520Y26820D02*
X46500D01*
X35520Y28900D02*
X46500D01*
X41940Y24650D02*
Y43283D01*
X42980Y24650D02*
Y44250D01*
X40900Y24650D02*
Y42243D01*
X35520Y25780D02*
X46500D01*
X38820Y24650D02*
Y40163D01*
X35520Y24740D02*
X46500D01*
X43559Y19540D02*
X47346D01*
X43559Y18500D02*
X48343D01*
X35520Y24650D02*
X43559D01*
Y17460D02*
X49400D01*
X43559Y16420D02*
X52750D01*
X42945Y14340D02*
X52750D01*
X39860Y24650D02*
Y41203D01*
X42980Y2000D02*
Y14350D01*
X42947D02*
X43559D01*
X60845Y11220D02*
X64010D01*
X65172Y8672D02*
X71172Y2672D01*
X67940Y2000D02*
Y5903D01*
X64820Y2000D02*
Y9074D01*
X63250Y13625D02*
Y14014D01*
X60625Y11000D02*
X63250Y13625D01*
X62925Y13300D02*
X63657D01*
X64000Y11500D02*
Y12849D01*
X61885Y12260D02*
X64000D01*
X62740Y2000D02*
Y13115D01*
X63780Y2000D02*
Y13127D01*
X61700Y2000D02*
Y12075D01*
X66900Y2000D02*
Y6943D01*
X68980Y2000D02*
Y4863D01*
X65860Y2000D02*
Y7983D01*
X59620Y2000D02*
Y11000D01*
X60660Y2000D02*
Y11035D01*
X58580Y2000D02*
Y11000D01*
X57540Y2000D02*
Y11000D01*
X56500Y2000D02*
Y11000D01*
X55375D02*
X60625D01*
X39837Y10180D02*
X64224D01*
X38797Y9140D02*
X64770D01*
X37607Y8100D02*
X65743D01*
X3480Y6020D02*
X67823D01*
X2440Y7060D02*
X66783D01*
X42621Y13300D02*
X53075D01*
X52750Y13625D02*
X55375Y11000D01*
X41914Y12260D02*
X54115D01*
X40877Y11220D02*
X55155D01*
X38328Y8672D02*
X41828Y12172D01*
X54420Y2000D02*
Y11955D01*
X55460Y2000D02*
Y11000D01*
X4520Y4980D02*
X68863D01*
X6600Y2900D02*
X70943D01*
X7000Y2000D02*
X72063D01*
X5560Y3940D02*
X69903D01*
X41940Y2000D02*
Y12288D01*
X53380Y2000D02*
Y12995D01*
X40900Y2000D02*
Y11243D01*
X39860Y2000D02*
Y10203D01*
X38820Y2000D02*
Y9163D01*
X35700Y24650D02*
Y37043D01*
X37780Y24650D02*
Y39123D01*
X35520Y24650D02*
Y36863D01*
X25697Y30980D02*
X27520D01*
X26737Y29940D02*
X27520D01*
X24348Y32328D02*
X27520Y29157D01*
X26340Y30336D02*
Y43503D01*
X27380Y29297D02*
Y43578D01*
X25300Y31376D02*
Y43646D01*
X24656Y32020D02*
X27520D01*
Y29157D02*
Y38520D01*
X11453Y25500D02*
X19863D01*
X36740Y24650D02*
Y38083D01*
X19863Y25500D02*
X27461Y17902D01*
X19060Y2000D02*
Y25500D01*
X18020Y2000D02*
Y25500D01*
X20100Y2000D02*
Y25263D01*
X16980Y2000D02*
Y25500D01*
X12820Y2000D02*
Y25500D01*
X13860Y2000D02*
Y25500D01*
X11780Y2000D02*
Y25500D01*
X15940Y2000D02*
Y25500D01*
X14900Y2000D02*
Y25500D01*
X2000Y32020D02*
X2547D01*
X11453Y25047D02*
Y25500D01*
X2000Y29940D02*
X2547D01*
X2000Y30980D02*
X2547D01*
Y25047D02*
Y33953D01*
X2000Y28900D02*
X2547D01*
X2000Y26820D02*
X2547D01*
X2000Y25780D02*
X2547D01*
X2000Y27860D02*
X2547D01*
X7620Y2000D02*
Y25047D01*
X8660Y2000D02*
Y25047D01*
X6580Y2920D02*
Y25047D01*
X9700Y2000D02*
Y25047D01*
X10740Y2000D02*
Y25047D01*
X2547D02*
X11453D01*
X2420Y7080D02*
Y37615D01*
X3460Y6040D02*
Y25047D01*
X2000Y7500D02*
Y57000D01*
X5540Y3960D02*
Y25047D01*
X4500Y5000D02*
Y25047D01*
X32672Y14328D02*
X33193Y14850D01*
X32580Y14234D02*
Y14850D01*
X27461D02*
X33193D01*
X33620Y2000D02*
Y7969D01*
X24260Y2000D02*
Y21103D01*
X31540Y12064D02*
Y14850D01*
X32580Y2000D02*
Y8766D01*
X27461Y14850D02*
Y17902D01*
X31540Y2000D02*
Y10936D01*
X37780Y2000D02*
Y8213D01*
X30500Y2000D02*
Y14850D01*
X35700Y2000D02*
Y7505D01*
X36740Y2000D02*
Y7697D01*
X34660Y2000D02*
Y7589D01*
X26340Y2000D02*
Y19023D01*
X27380Y2000D02*
Y17983D01*
X25300Y2000D02*
Y20063D01*
X29460Y2000D02*
Y14850D01*
X28420Y2000D02*
Y14850D01*
X2000Y18500D02*
X26863D01*
X2000Y17460D02*
X27461D01*
X2000Y19540D02*
X25823D01*
X2000Y15380D02*
X27461D01*
X2000Y14340D02*
X32683D01*
X2000Y16420D02*
X27461D01*
X2000Y23700D02*
X21663D01*
X2000Y22660D02*
X22703D01*
X2000Y24740D02*
X20623D01*
X2000Y20580D02*
X24783D01*
X2000Y21620D02*
X23743D01*
X2000Y12260D02*
X31573D01*
X2000Y11220D02*
X31510D01*
X2000Y13300D02*
X31928D01*
X2000Y9140D02*
X32270D01*
X2000Y8100D02*
X33393D01*
X2000Y10180D02*
X31724D01*
X22180Y2000D02*
Y23183D01*
X23220Y2000D02*
Y22143D01*
X21140Y2000D02*
Y24223D01*
X7000Y2000D02*
Y2500D01*
X2000Y7500D02*
X7000Y2500D01*
D14*
X58000Y20500D02*
D03*
D15*
X78000D02*
D03*
X68000D02*
D03*
D16*
Y44500D02*
D03*
D17*
X105500Y19500D02*
D03*
X98020D02*
D03*
X39000D02*
D03*
X31520D02*
D03*
D25*
X73750Y20500D02*
X78000D01*
X82250D01*
X78000Y12000D02*
Y20500D01*
X41500Y48500D02*
Y52500D01*
Y48500D02*
X45500D01*
X37500D02*
X41500D01*
Y44500D02*
Y48500D01*
X3047Y29500D02*
X7000D01*
Y33453D01*
Y25547D02*
Y29500D01*
X27961Y19500D02*
X31520D01*
Y15350D02*
Y19500D01*
D26*
X105500D02*
Y23500D01*
X102000Y27000D02*
X105500Y23500D01*
X39000Y15000D02*
Y19500D01*
X35500Y11500D02*
X39000Y15000D01*
X52000Y20500D02*
X58000D01*
X50500Y22000D02*
X52000Y20500D01*
X50500Y22000D02*
Y56000D01*
X47500Y59000D02*
X50500Y56000D01*
X37000Y59000D02*
X47500D01*
X26500Y48500D02*
X37000Y59000D01*
X99000Y59500D02*
X110500Y48000D01*
X65000Y59500D02*
X99000D01*
X58000Y52500D02*
X65000Y59500D01*
X58000Y20500D02*
Y52500D01*
X78000Y20500D02*
Y33000D01*
X31520Y38520D02*
X41500Y48500D01*
X31520Y19500D02*
Y38520D01*
X21520Y29500D02*
X31520Y19500D01*
X7000Y29500D02*
X21520D01*
X7000Y39500D02*
X16000Y48500D01*
X26500D01*
X92000Y44500D02*
X95500Y48000D01*
X68000Y44500D02*
X92000D01*
X68000Y20500D02*
Y44500D01*
Y11500D02*
Y20500D01*
Y11500D02*
X74000Y5500D01*
X84020D01*
X98020Y19500D01*
Y16980D02*
Y19500D01*
Y16980D02*
X104000Y11000D01*
X114500D01*
X132500Y29000D01*
D27*
D03*
X7000Y29500D02*
D03*
D28*
X132500Y39000D02*
D03*
X7000Y39500D02*
D03*
D29*
X95500Y48000D02*
D03*
X110500D02*
D03*
X41500Y48500D02*
D03*
X26500D02*
D03*
D30*
X102000Y27000D02*
D03*
X35500Y11500D02*
D03*
X78000Y33000D02*
D03*
M02*
