G04*
G04 #@! TF.GenerationSoftware,Altium Limited,Altium Designer,18.1.9 (240)*
G04*
G04 Layer_Physical_Order=2*
G04 Layer_Color=16711680*
%FSLAX25Y25*%
%MOIN*%
G70*
G01*
G75*
%ADD12C,0.01000*%
%ADD26C,0.04000*%
%ADD27R,0.05906X0.05906*%
%ADD28C,0.05906*%
%ADD29C,0.06000*%
%ADD30C,0.04000*%
%ADD31R,0.06000X0.05000*%
D12*
X115450Y48707D02*
G03*
X109793Y43050I-4950J-707D01*
G01*
X137453Y39000D02*
G03*
X129579Y43000I-4953J0D01*
G01*
Y35000D02*
G03*
X137453Y39000I2921J4000D01*
G01*
X116672Y36172D02*
G03*
X119500Y35000I2828J2828D01*
G01*
X116672Y36172D02*
G03*
X119500Y35000I2828J2828D01*
G01*
X100500Y48000D02*
G03*
X100500Y48000I-5000J0D01*
G01*
X82000Y33000D02*
G03*
X80828Y35828I-4000J0D01*
G01*
X82000Y33000D02*
G03*
X80828Y35828I-4000J0D01*
G01*
X65328Y51328D02*
G03*
X62500Y52500I-2828J-2828D01*
G01*
X65328Y51328D02*
G03*
X62500Y52500I-2828J-2828D01*
G01*
X75172Y30172D02*
G03*
X82000Y33000I2828J2828D01*
G01*
X75172Y30172D02*
G03*
X82000Y33000I2828J2828D01*
G01*
X104828Y29828D02*
G03*
X99172Y24172I-2828J-2828D01*
G01*
X104828Y29828D02*
G03*
X99172Y24172I-2828J-2828D01*
G01*
X110205Y24006D02*
G03*
X109328Y25328I-3706J-1506D01*
G01*
X110205Y24006D02*
G03*
X109328Y25328I-3706J-1506D01*
G01*
X44500Y52500D02*
G03*
X44500Y44500I-3000J-4000D01*
G01*
Y34500D02*
G03*
X43328Y37328I-4000J0D01*
G01*
X44500Y34500D02*
G03*
X43328Y37328I-4000J0D01*
G01*
X31450Y49207D02*
G03*
X25793Y43550I-4950J-707D01*
G01*
X11953Y39500D02*
G03*
X11953Y39500I-4953J0D01*
G01*
X39500Y11500D02*
G03*
X38328Y14328I-4000J0D01*
G01*
X39500Y11500D02*
G03*
X38328Y14328I-4000J0D01*
G01*
X32672Y8672D02*
G03*
X39500Y11500I2828J2828D01*
G01*
X32672Y8672D02*
G03*
X39500Y11500I2828J2828D01*
G01*
X27531Y15006D02*
G03*
X28672Y12672I3969J494D01*
G01*
X27531Y15006D02*
G03*
X28672Y12672I3969J494D01*
G01*
X133000Y62500D02*
X137500Y58000D01*
X132420Y43952D02*
Y62500D01*
X131380Y43824D02*
Y62500D01*
X134500Y43531D02*
Y61000D01*
X133460Y43859D02*
Y62040D01*
X119940Y44217D02*
Y62500D01*
X120980Y43177D02*
Y62500D01*
X118900Y45257D02*
Y62500D01*
X130340Y43457D02*
Y62500D01*
X129300Y43000D02*
Y62500D01*
X127220Y43000D02*
Y62500D01*
X128260Y43000D02*
Y62500D01*
X126180Y43000D02*
Y62500D01*
X136580Y41808D02*
Y58920D01*
X135540Y42910D02*
Y59960D01*
X123060Y43000D02*
Y62500D01*
X122020Y43000D02*
Y62500D01*
X125140Y43000D02*
Y62500D01*
X124100Y43000D02*
Y62500D01*
X113773Y51780D02*
X137500D01*
X114740Y50650D02*
Y62500D01*
X111829Y52820D02*
X137500D01*
X115202Y49700D02*
X137500D01*
X114682Y50740D02*
X137500D01*
X111620Y52873D02*
Y62500D01*
X110580Y52999D02*
Y62500D01*
X113700Y51842D02*
Y62500D01*
X112660Y52509D02*
Y62500D01*
X115497Y48660D02*
X137500D01*
X116537Y47620D02*
X137500D01*
X115450Y48707D02*
X121157Y43000D01*
X118617Y45540D02*
X137500D01*
X117577Y46580D02*
X137500D01*
X117860Y46297D02*
Y62500D01*
X116820Y47337D02*
Y62500D01*
X115780Y48377D02*
Y62500D01*
X136082Y42420D02*
X137500D01*
X136843Y41380D02*
X137500D01*
X134654Y43460D02*
X137500D01*
X136572Y36180D02*
X137500D01*
X135603Y35140D02*
X137500D01*
X120697Y43460D02*
X130346D01*
X137122Y37220D02*
X137500D01*
X121157Y43000D02*
X129579D01*
X135540Y33953D02*
Y35090D01*
X136580Y33953D02*
Y36192D01*
X133221Y34100D02*
X137500D01*
X127547Y33953D02*
X137453D01*
X129300D02*
Y35000D01*
X128260Y33953D02*
Y35000D01*
X134500Y33953D02*
Y34469D01*
X130340Y33953D02*
Y34543D01*
X119657Y44500D02*
X137500D01*
X109793Y43050D02*
X116672Y36172D01*
X79437Y37220D02*
X115623D01*
X81379Y35140D02*
X118451D01*
X80477Y36180D02*
X116663D01*
X76317Y40340D02*
X112503D01*
X75277Y41380D02*
X111463D01*
X78397Y38260D02*
X114583D01*
X77357Y39300D02*
X113543D01*
X119500Y35000D02*
X129579D01*
X81999Y33060D02*
X127547D01*
X81846Y34100D02*
X131779D01*
X105757Y28900D02*
X127547D01*
X81878Y32020D02*
X127547D01*
X104712Y29940D02*
X127547D01*
X102400Y30980D02*
X127547D01*
X98100Y52271D02*
Y62500D01*
X107460Y51970D02*
Y62500D01*
X97060Y52750D02*
Y62500D01*
X109540Y52907D02*
Y62500D01*
X108500Y52583D02*
Y62500D01*
X93940Y52750D02*
Y62500D01*
X92900Y52271D02*
Y62500D01*
X91860Y51428D02*
Y62500D01*
X96020Y52973D02*
Y62500D01*
X94980Y52973D02*
Y62500D01*
X103300Y30783D02*
Y62500D01*
X104340Y30244D02*
Y62500D01*
X102260Y30992D02*
Y62500D01*
X106420Y50890D02*
Y62500D01*
X105380Y29277D02*
Y62500D01*
X99140Y51428D02*
Y62500D01*
X90820Y49760D02*
Y62500D01*
X101220Y30923D02*
Y62500D01*
X100180Y49760D02*
Y62500D01*
X66900Y49757D02*
Y62500D01*
X67940Y48717D02*
Y62500D01*
X65860Y50797D02*
Y62500D01*
X70020Y46637D02*
Y62500D01*
X68980Y47677D02*
Y62500D01*
X62740Y52493D02*
Y62500D01*
X61700Y52500D02*
Y62500D01*
X64820Y51758D02*
Y62500D01*
X63780Y52290D02*
Y62500D01*
X78340Y38317D02*
Y62500D01*
X79380Y37277D02*
Y62500D01*
X77300Y39357D02*
Y62500D01*
X81460Y35007D02*
Y62500D01*
X80420Y36237D02*
Y62500D01*
X73140Y43517D02*
Y62500D01*
X71060Y45597D02*
Y62500D01*
X76260Y40397D02*
Y62500D01*
X74180Y42477D02*
Y62500D01*
X98773Y51780D02*
X107227D01*
X99682Y50740D02*
X106318D01*
X96829Y52820D02*
X109170D01*
X99853Y45540D02*
X106147D01*
X99071Y44500D02*
X106929D01*
X100456Y48660D02*
X105544D01*
X100202Y49700D02*
X105798D01*
X100486Y47620D02*
X105515D01*
X100294Y46580D02*
X105706D01*
X100180Y30562D02*
Y46240D01*
X106420Y28237D02*
Y45110D01*
X97595Y43460D02*
X108405D01*
X81453Y30980D02*
X101601D01*
X99140Y29796D02*
Y44572D01*
X98100Y27889D02*
Y43729D01*
X65917Y50740D02*
X91318D01*
X66957Y49700D02*
X90798D01*
X64789Y51780D02*
X92227D01*
X71117Y45540D02*
X91147D01*
X70077Y46580D02*
X90706D01*
X69037Y47620D02*
X90514D01*
X67997Y48660D02*
X90544D01*
X73197Y43460D02*
X93405D01*
X74237Y42420D02*
X110423D01*
X72157Y44500D02*
X91929D01*
X80576Y29940D02*
X99288D01*
X75220Y41437D02*
Y62500D01*
X72100Y44557D02*
Y62500D01*
X65328Y51328D02*
X80828Y35828D01*
X137453Y24047D02*
Y33953D01*
X137500Y6500D02*
Y58000D01*
X132420Y2000D02*
Y24047D01*
X131380Y2000D02*
Y24047D01*
X130340Y2000D02*
Y24047D01*
X126180Y2000D02*
Y35000D01*
X127220Y2000D02*
Y35000D01*
X125140Y2000D02*
Y35000D01*
X128260Y2000D02*
Y24047D01*
X127547D02*
Y33953D01*
X120980Y2000D02*
Y35000D01*
X122020Y2000D02*
Y35000D01*
X119940Y2000D02*
Y35000D01*
X124100Y2000D02*
Y35000D01*
X123060Y2000D02*
Y35000D01*
X116820Y2000D02*
Y36031D01*
X115780Y2000D02*
Y37063D01*
X118900Y2000D02*
Y35045D01*
X117860Y2000D02*
Y35352D01*
X107837Y26820D02*
X127547D01*
X109540Y25100D02*
Y43093D01*
X106797Y27860D02*
X127547D01*
X109814Y24740D02*
X127547D01*
X108877Y25780D02*
X127547D01*
X108500Y26157D02*
Y43417D01*
X107460Y27197D02*
Y44030D01*
X104828Y29828D02*
X109328Y25328D01*
X111620Y2000D02*
Y41223D01*
X112660Y2000D02*
Y40183D01*
X110580Y24006D02*
Y42263D01*
X114740Y2000D02*
Y38103D01*
X113700Y2000D02*
Y39143D01*
X98100Y24006D02*
Y26111D01*
X111500Y19540D02*
X137500D01*
X111500Y18500D02*
X137500D01*
X111500Y20580D02*
X137500D01*
X111500Y16420D02*
X137500D01*
X111500Y17460D02*
X137500D01*
X127547Y24047D02*
X137453D01*
X111500Y23700D02*
X137500D01*
X111500Y21620D02*
X137500D01*
X111500Y22660D02*
X137500D01*
X136580Y5580D02*
Y24047D01*
X135540Y4540D02*
Y24047D01*
X134500Y3500D02*
Y24047D01*
X133500Y2500D02*
X137500Y6500D01*
X111500Y15380D02*
X137500D01*
X133460Y2000D02*
Y24047D01*
X129300Y2000D02*
Y24047D01*
X133500Y2000D02*
Y2500D01*
X111500Y15006D02*
Y24006D01*
X110205D02*
X111500D01*
X109540Y2000D02*
Y15006D01*
X102500D02*
X111500D01*
X107460Y2000D02*
Y15006D01*
X106420Y2000D02*
Y15006D01*
X92500D02*
X101500D01*
X92500Y24006D02*
X99337D01*
X101500Y15006D02*
X102500D01*
X101500D02*
X102500D01*
X104340Y2000D02*
Y15006D01*
X105380Y2000D02*
Y15006D01*
X103300Y2000D02*
Y15006D01*
X110580Y2000D02*
Y15006D01*
X108500Y2000D02*
Y15006D01*
X100180Y2000D02*
Y15006D01*
X99140Y2000D02*
Y15006D01*
X102260Y2000D02*
Y15006D01*
X101220Y2000D02*
Y15006D01*
X93940Y24006D02*
Y43250D01*
X97060Y24006D02*
Y43250D01*
X92900Y24006D02*
Y43729D01*
X96020Y24006D02*
Y43027D01*
X94980Y24006D02*
Y43027D01*
X89780Y23506D02*
Y62500D01*
X90820Y23506D02*
Y46240D01*
X88740Y23506D02*
Y62500D01*
X92500Y23506D02*
Y24006D01*
X91860Y23506D02*
Y44572D01*
X84580Y23506D02*
Y62500D01*
X85620Y23506D02*
Y62500D01*
X83540Y23506D02*
Y62500D01*
X87700Y23506D02*
Y62500D01*
X86660Y23506D02*
Y62500D01*
X82500Y23506D02*
Y62500D01*
X81460Y23506D02*
Y30993D01*
X80420Y23506D02*
Y29815D01*
X79380Y23506D02*
Y29246D01*
X75220Y23506D02*
Y30124D01*
X76260Y23506D02*
Y29398D01*
X74180Y23506D02*
Y31163D01*
X78340Y23506D02*
Y29015D01*
X77300Y23506D02*
Y29062D01*
X71060Y23506D02*
Y34283D01*
X70020Y23506D02*
Y35323D01*
X73140Y23506D02*
Y32203D01*
X72100Y23506D02*
Y33243D01*
X66900Y23506D02*
Y38443D01*
X67940Y23506D02*
Y37403D01*
X65860Y23506D02*
Y39483D01*
X68980Y23506D02*
Y36363D01*
X67940Y2000D02*
Y15506D01*
X62740Y23506D02*
Y42603D01*
X61700Y23506D02*
Y43643D01*
X64820Y23506D02*
Y40523D01*
X63780Y23506D02*
Y41563D01*
X94980Y2000D02*
Y15006D01*
X96020Y2000D02*
Y15006D01*
X93940Y2000D02*
Y15006D01*
X98100Y2000D02*
Y15006D01*
X97060Y2000D02*
Y15006D01*
X91860Y2000D02*
Y15506D01*
X90820Y2000D02*
Y15506D01*
X92900Y2000D02*
Y15006D01*
X92500D02*
Y15506D01*
X86660Y2000D02*
Y15506D01*
X87700Y2000D02*
Y15506D01*
X85620Y2000D02*
Y15506D01*
X89780Y2000D02*
Y15506D01*
X88740Y2000D02*
Y15506D01*
X82500Y2000D02*
Y15506D01*
X81460Y2000D02*
Y15506D01*
X84580Y2000D02*
Y15506D01*
X83540Y2000D02*
Y15506D01*
X66900Y2000D02*
Y15506D01*
X68980Y2000D02*
Y15506D01*
X65860Y2000D02*
Y15506D01*
X71060Y2000D02*
Y15506D01*
X70020Y2000D02*
Y15506D01*
X62740Y2000D02*
Y15506D01*
X61700Y2000D02*
Y15506D01*
X64820Y2000D02*
Y15506D01*
X63780Y2000D02*
Y15506D01*
X77300Y2000D02*
Y15506D01*
X78340Y2000D02*
Y15506D01*
X76260Y2000D02*
Y15506D01*
X80420Y2000D02*
Y15506D01*
X79380Y2000D02*
Y15506D01*
X73140Y2000D02*
Y15506D01*
X72100Y2000D02*
Y15506D01*
X75220Y2000D02*
Y15506D01*
X74180Y2000D02*
Y15506D01*
X49220Y52500D02*
Y62500D01*
X50260Y52500D02*
Y62500D01*
X48180Y52500D02*
Y62500D01*
X51300Y52500D02*
Y62500D01*
X44017Y52820D02*
X94170D01*
X44020Y52819D02*
Y62500D01*
X45060Y52500D02*
Y62500D01*
X42980Y53276D02*
Y62500D01*
X47140Y52500D02*
Y62500D01*
X46100Y52500D02*
Y62500D01*
X57540Y52500D02*
Y62500D01*
X58580Y52500D02*
Y62500D01*
X56500Y52500D02*
Y62500D01*
X60660Y52500D02*
Y62500D01*
X59620Y52500D02*
Y62500D01*
X53380Y52500D02*
Y62500D01*
X52340Y52500D02*
Y62500D01*
X55460Y52500D02*
Y62500D01*
X54420Y52500D02*
Y62500D01*
X3560Y59060D02*
X136440D01*
X2520Y58020D02*
X137480D01*
X2000Y56980D02*
X137500D01*
X2000Y54900D02*
X137500D01*
X2000Y55940D02*
X137500D01*
X7000Y62500D02*
X133000D01*
X6680Y62180D02*
X133320D01*
X5640Y61140D02*
X134360D01*
X4600Y60100D02*
X135400D01*
X41940Y53481D02*
Y62500D01*
X40900Y53464D02*
Y62500D01*
X39860Y53223D02*
Y62500D01*
X2000Y53860D02*
X137500D01*
X37780Y51841D02*
Y62500D01*
X36740Y50030D02*
Y62500D01*
X38820Y52721D02*
Y62500D01*
X29017Y52820D02*
X38982D01*
X44500Y52500D02*
X62500D01*
X44500Y44500D02*
X60843D01*
X43433Y37220D02*
X68123D01*
X44449Y35140D02*
X70203D01*
X44130Y36180D02*
X69163D01*
X44500Y44500D02*
X60843D01*
X44020Y36400D02*
Y44181D01*
X60843Y44500D02*
X75172Y30172D01*
X44500Y29940D02*
X75424D01*
X44500Y28900D02*
X98480D01*
X44500Y26820D02*
X98004D01*
X44500Y27860D02*
X98093D01*
X44500Y33060D02*
X72283D01*
X44500Y34100D02*
X71243D01*
X44500Y30980D02*
X74363D01*
X44500Y32020D02*
X73323D01*
X37780Y42877D02*
Y45159D01*
X38820Y41837D02*
Y44279D01*
X36157Y44500D02*
X38500D01*
X38237Y42420D02*
X62923D01*
X37197Y43460D02*
X61883D01*
X30970Y50740D02*
X37030D01*
X30274Y51780D02*
X37726D01*
X35117Y45540D02*
X37470D01*
X34077Y46580D02*
X36883D01*
X39277Y41380D02*
X63963D01*
X40317Y40340D02*
X65003D01*
X31450Y49207D02*
X43328Y37328D01*
X42397Y38260D02*
X67083D01*
X41357Y39300D02*
X66043D01*
X42980Y37677D02*
Y43724D01*
X39860Y40797D02*
Y43777D01*
X41940Y38717D02*
Y43519D01*
X40900Y39757D02*
Y43536D01*
X28420Y53117D02*
Y62500D01*
X29460Y52530D02*
Y62500D01*
X27380Y53422D02*
Y62500D01*
X31354Y49700D02*
X36646D01*
X30500Y51500D02*
Y62500D01*
X24260Y52970D02*
Y62500D01*
X23220Y52274D02*
Y62500D01*
X22180Y51017D02*
Y62500D01*
X26340Y53497D02*
Y62500D01*
X25300Y53354D02*
Y62500D01*
X34660Y45997D02*
Y62500D01*
X35700Y44957D02*
Y62500D01*
X31997Y48660D02*
X36503D01*
X36740Y43917D02*
Y46970D01*
X33037Y47620D02*
X36578D01*
X33620Y47037D02*
Y62500D01*
X32580Y48077D02*
Y62500D01*
X31540Y49117D02*
Y62500D01*
X2000Y51780D02*
X22726D01*
X2000Y50740D02*
X22030D01*
X2000Y52820D02*
X23982D01*
X2000Y46580D02*
X21883D01*
X2000Y49700D02*
X21646D01*
X6580Y44435D02*
Y62080D01*
X2000Y57500D02*
X7000Y62500D01*
X2000Y47620D02*
X21578D01*
X2000Y48660D02*
X21503D01*
X8660Y44166D02*
Y62500D01*
X9700Y43652D02*
Y62500D01*
X7620Y44414D02*
Y62500D01*
X11780Y40797D02*
Y62500D01*
X10740Y42747D02*
Y62500D01*
X5540Y44233D02*
Y61040D01*
X4500Y43775D02*
Y60000D01*
X3460Y42964D02*
Y58960D01*
X2420Y41385D02*
Y57920D01*
X11881Y40340D02*
X29003D01*
X11949Y39300D02*
X30043D01*
X11795Y38260D02*
X31083D01*
X11397Y37220D02*
X32123D01*
X10675Y36180D02*
X33163D01*
X11582Y41380D02*
X27963D01*
X11000Y42420D02*
X26923D01*
X11780Y34453D02*
Y38203D01*
X10740Y34453D02*
Y36253D01*
X11953Y29940D02*
X36500D01*
X11953Y28900D02*
X36500D01*
X11953Y30980D02*
X36500D01*
X11953Y26820D02*
X36500D01*
X11953Y27860D02*
X36500D01*
X25793Y43550D02*
X36500Y32843D01*
X11953Y34100D02*
X35243D01*
X11953Y32020D02*
X36500D01*
X11953Y33060D02*
X36283D01*
X2000Y44500D02*
X23500D01*
X9975Y43460D02*
X25883D01*
X2000Y45540D02*
X22470D01*
X9349Y35140D02*
X34203D01*
X2000Y43460D02*
X4025D01*
X2000Y41380D02*
X2418D01*
X2000Y42420D02*
X3000D01*
X2000Y36180D02*
X3325D01*
X2000Y37220D02*
X2603D01*
X8660Y34453D02*
Y34834D01*
X9700Y34453D02*
Y35348D01*
X5540Y34453D02*
Y34767D01*
X2047Y34453D02*
X11953D01*
X3460D02*
Y36036D01*
X2420Y34453D02*
Y37615D01*
X4500Y34453D02*
Y35225D01*
X2000Y35140D02*
X4651D01*
X57540Y23506D02*
Y44500D01*
X58580Y23506D02*
Y44500D01*
X56500Y23506D02*
Y44500D01*
X60660Y23506D02*
Y44500D01*
X59620Y23506D02*
Y44500D01*
X52340Y23506D02*
Y44500D01*
X53380Y23506D02*
Y44500D01*
X51300Y23506D02*
Y44500D01*
X55460Y23506D02*
Y44500D01*
X54420Y23506D02*
Y44500D01*
X57540Y2000D02*
Y15506D01*
X58580Y2000D02*
Y15506D01*
X56500Y2000D02*
Y15506D01*
X60660Y2000D02*
Y15506D01*
X59620Y2000D02*
Y15506D01*
X53380Y2000D02*
Y15506D01*
X52340Y2000D02*
Y15506D01*
X55460Y2000D02*
Y15506D01*
X54420Y2000D02*
Y15506D01*
X44500Y25780D02*
X98191D01*
X45060Y24006D02*
Y44500D01*
X44500Y24740D02*
X98700D01*
X45500Y23700D02*
X92500D01*
X44500Y24006D02*
X45500D01*
X44500D02*
Y34500D01*
X11953Y25780D02*
X36500D01*
X35500Y24006D02*
X36500D01*
X11953Y24740D02*
X36500D01*
X49220Y23506D02*
Y44500D01*
X50260Y23506D02*
Y44500D01*
X48180Y23506D02*
Y44500D01*
X45500Y15506D02*
X92500D01*
X45500Y23506D02*
X92500D01*
X47140D02*
Y44500D01*
X46100Y23506D02*
Y44500D01*
X48180Y2000D02*
Y15506D01*
X45500Y23506D02*
Y24006D01*
Y15380D02*
X92500D01*
X39427Y12260D02*
X137500D01*
X39072Y13300D02*
X137500D01*
X39490Y11220D02*
X137500D01*
X39276Y10180D02*
X137500D01*
X47140Y2000D02*
Y15506D01*
X46100Y2000D02*
Y15506D01*
X45500Y15006D02*
Y15506D01*
X38820Y13731D02*
Y15006D01*
X50260Y2000D02*
Y15506D01*
X51300Y2000D02*
Y15506D01*
X49220Y2000D02*
Y15506D01*
X45060Y2000D02*
Y15006D01*
X44020Y2000D02*
Y15006D01*
X40900Y2000D02*
Y15006D01*
X39860Y2000D02*
Y15006D01*
X42980Y2000D02*
Y15006D01*
X41940Y2000D02*
Y15006D01*
X38317Y14340D02*
X137500D01*
X37650Y15006D02*
X45500D01*
X38730Y9140D02*
X137500D01*
X37607Y8100D02*
X137500D01*
X37650Y15006D02*
X38328Y14328D01*
X2980Y6020D02*
X137020D01*
X4020Y4980D02*
X135980D01*
X2000Y7060D02*
X137500D01*
X6100Y2900D02*
X133900D01*
X5060Y3940D02*
X134940D01*
X38820Y2000D02*
Y9269D01*
X37780Y2000D02*
Y8213D01*
X36740Y2000D02*
Y7697D01*
X6500Y2000D02*
X133500D01*
X33620Y24006D02*
Y35723D01*
X34660Y24006D02*
Y34683D01*
X32580Y24006D02*
Y36763D01*
X36500Y24006D02*
Y32843D01*
X35700Y24006D02*
Y33643D01*
X29460Y24006D02*
Y39883D01*
X28420Y24006D02*
Y40923D01*
X31540Y24006D02*
Y37803D01*
X30500Y24006D02*
Y38843D01*
X24260Y2000D02*
Y44030D01*
X25300Y2000D02*
Y43646D01*
X23220Y2000D02*
Y44726D01*
X27380Y24006D02*
Y41963D01*
X26340Y2000D02*
Y43003D01*
X20100Y2000D02*
Y62500D01*
X19060Y2000D02*
Y62500D01*
X22180Y2000D02*
Y45983D01*
X21140Y2000D02*
Y62500D01*
X13860Y2000D02*
Y62500D01*
X14900Y2000D02*
Y62500D01*
X11953Y24547D02*
Y34453D01*
X5540Y3460D02*
Y24547D01*
X4500Y4500D02*
Y24547D01*
X2047D02*
Y34453D01*
X2000Y7000D02*
Y57500D01*
X3460Y5540D02*
Y24547D01*
X2420Y6580D02*
Y24547D01*
X16980Y2000D02*
Y62500D01*
X18020Y2000D02*
Y62500D01*
X15940Y2000D02*
Y62500D01*
X12820Y2000D02*
Y62500D01*
X10740Y2000D02*
Y24547D01*
X7620Y2000D02*
Y24547D01*
X6580Y2000D02*
Y24547D01*
X9700Y2000D02*
Y24547D01*
X8660Y2000D02*
Y24547D01*
X35500Y24006D02*
X36500D01*
X28672Y12672D02*
X32672Y8672D01*
X26500Y24006D02*
X35500D01*
X33620Y2000D02*
Y7969D01*
X32580Y2000D02*
Y8763D01*
X26500Y15006D02*
X27531D01*
X26500D02*
Y24006D01*
X30500Y2000D02*
Y10843D01*
X31540Y2000D02*
Y9803D01*
X29460Y2000D02*
Y11883D01*
X35700Y2000D02*
Y7505D01*
X34660Y2000D02*
Y7589D01*
X27380Y2000D02*
Y15006D01*
X11780Y2000D02*
Y24547D01*
X28420Y2000D02*
Y12948D01*
X6500Y2000D02*
Y2500D01*
X2000Y19540D02*
X26500D01*
X2000Y18500D02*
X26500D01*
X2000Y20580D02*
X26500D01*
X2000Y16420D02*
X26500D01*
X2000Y17460D02*
X26500D01*
X2047Y24547D02*
X11953D01*
X2000Y23700D02*
X26500D01*
X2000Y21620D02*
X26500D01*
X2000Y22660D02*
X26500D01*
X2000Y11220D02*
X30123D01*
X2000Y10180D02*
X31163D01*
X2000Y12260D02*
X29083D01*
X2000Y8100D02*
X33393D01*
X2000Y9140D02*
X32203D01*
X2000Y14340D02*
X27672D01*
X2000Y15380D02*
X26500D01*
X2000Y7000D02*
X6500Y2500D01*
X2000Y13300D02*
X28159D01*
D26*
X106500Y19506D02*
Y22500D01*
X102000Y27000D02*
X106500Y22500D01*
X31500Y15500D02*
Y19506D01*
Y15500D02*
X35500Y11500D01*
X40500Y19506D02*
X97500D01*
X40500D02*
Y34500D01*
X26500Y48500D02*
X40500Y34500D01*
X62500Y48500D02*
X78000Y33000D01*
X41500Y48500D02*
X62500D01*
X110500Y48000D02*
X119500Y39000D01*
X132500D01*
D27*
Y29000D02*
D03*
X7000Y29500D02*
D03*
D28*
X132500Y39000D02*
D03*
X7000Y39500D02*
D03*
D29*
X95500Y48000D02*
D03*
X110500D02*
D03*
X41500Y48500D02*
D03*
X26500D02*
D03*
D30*
X102000Y27000D02*
D03*
X35500Y11500D02*
D03*
X78000Y33000D02*
D03*
D31*
X31500Y19506D02*
D03*
X40500D02*
D03*
X106500D02*
D03*
X97500D02*
D03*
M02*
