G04*
G04 #@! TF.GenerationSoftware,Altium Limited,Altium Designer,18.1.9 (240)*
G04*
G04 Layer_Color=65535*
%FSLAX25Y25*%
%MOIN*%
G70*
G01*
G75*
%ADD10C,0.00700*%
%ADD11C,0.00787*%
%ADD12C,0.01000*%
%ADD13C,0.00600*%
D10*
X118000Y48000D02*
G03*
X118000Y48000I-15000J0D01*
G01*
X49000Y48500D02*
G03*
X49000Y48500I-15000J0D01*
G01*
X105445Y15400D02*
X109120D01*
X94420D02*
X98095D01*
X105445Y23700D02*
X109120D01*
X94420D02*
X98095D01*
X94420Y15400D02*
Y23700D01*
X109120Y15400D02*
Y23700D01*
X38945Y15400D02*
X42620D01*
X27920D02*
X31595D01*
X38945Y23700D02*
X42620D01*
X27920D02*
X31595D01*
X27920Y15400D02*
Y23700D01*
X42620Y15400D02*
Y23700D01*
D11*
X55400Y31800D02*
X81400D01*
X55400Y33800D02*
X81400D01*
X55500Y30500D02*
Y33000D01*
X60500Y30500D02*
Y33000D01*
X65500Y30500D02*
Y33000D01*
X70500Y30500D02*
Y33000D01*
X75500Y30500D02*
Y33000D01*
X80500Y30500D02*
Y33000D01*
X55400Y31800D02*
Y33800D01*
Y43800D01*
X81400Y31800D02*
Y33800D01*
Y31800D02*
Y43800D01*
X71400Y49800D02*
X73400Y45800D01*
X81400Y43800D01*
X65400Y49800D02*
X71400D01*
X55567Y44133D02*
X61400Y45800D01*
X65400Y49800D01*
X127500Y44000D02*
X137500D01*
Y24000D02*
Y44000D01*
X127500Y24000D02*
X137500D01*
X127500D02*
Y44000D01*
X2000Y44500D02*
X12000D01*
Y24500D02*
Y44500D01*
X2000Y24500D02*
X12000D01*
X2000D02*
Y44500D01*
D12*
X90332Y10997D02*
X85000D01*
Y6999D01*
X87666Y8332D01*
X88999D01*
X90332Y6999D01*
Y4333D01*
X88999Y3000D01*
X86333D01*
X85000Y4333D01*
X92997Y8332D02*
X95663Y3000D01*
X98329Y8332D01*
X100995Y6999D02*
X106326D01*
X108992Y9664D02*
X110325Y10997D01*
X112991D01*
X114324Y9664D01*
Y8332D01*
X112991Y6999D01*
X111658D01*
X112991D01*
X114324Y5666D01*
Y4333D01*
X112991Y3000D01*
X110325D01*
X108992Y4333D01*
X116990Y3000D02*
Y4333D01*
X118323D01*
Y3000D01*
X116990D01*
X123654Y9664D02*
X124987Y10997D01*
X127653D01*
X128986Y9664D01*
Y8332D01*
X127653Y6999D01*
X126320D01*
X127653D01*
X128986Y5666D01*
Y4333D01*
X127653Y3000D01*
X124987D01*
X123654Y4333D01*
X131652Y8332D02*
X134317Y3000D01*
X136983Y8332D01*
D13*
X57400Y41037D02*
X57781Y41228D01*
X58352Y41799D01*
Y37800D01*
X100234Y26428D02*
Y23000D01*
X98520Y24714D02*
X101947D01*
X33734Y26428D02*
Y23000D01*
X32020Y24714D02*
X35447D01*
X93714Y56928D02*
Y53500D01*
X92000Y55214D02*
X95428D01*
X43286Y39572D02*
Y43000D01*
X45000Y41286D02*
X41572D01*
X77000Y49999D02*
Y47143D01*
X77190Y46571D01*
X77571Y46190D01*
X78143Y46000D01*
X78523D01*
X79095Y46190D01*
X79476Y46571D01*
X79666Y47143D01*
Y49999D01*
X80771Y49237D02*
X81151Y49428D01*
X81723Y49999D01*
Y46000D01*
X129500Y47404D02*
X131214D01*
X131785Y47595D01*
X131976Y47785D01*
X132166Y48166D01*
Y48737D01*
X131976Y49118D01*
X131785Y49309D01*
X131214Y49499D01*
X129500D01*
Y45500D01*
X133252Y48547D02*
Y48737D01*
X133442Y49118D01*
X133632Y49309D01*
X134013Y49499D01*
X134775D01*
X135156Y49309D01*
X135346Y49118D01*
X135537Y48737D01*
Y48357D01*
X135346Y47976D01*
X134966Y47404D01*
X133061Y45500D01*
X135727D01*
X5000Y47904D02*
X6714D01*
X7285Y48095D01*
X7476Y48285D01*
X7666Y48666D01*
Y49237D01*
X7476Y49618D01*
X7285Y49809D01*
X6714Y49999D01*
X5000D01*
Y46000D01*
X8561Y49237D02*
X8942Y49428D01*
X9513Y49999D01*
Y46000D01*
X88001Y15000D02*
X92000D01*
X88001D02*
Y16333D01*
X88191Y16904D01*
X88572Y17285D01*
X88953Y17476D01*
X89524Y17666D01*
X90477D01*
X91048Y17476D01*
X91429Y17285D01*
X91810Y16904D01*
X92000Y16333D01*
Y15000D01*
X88572Y21227D02*
X88191Y20846D01*
X88001Y20275D01*
Y19513D01*
X88191Y18942D01*
X88572Y18561D01*
X88953D01*
X89334Y18752D01*
X89524Y18942D01*
X89715Y19323D01*
X90096Y20466D01*
X90286Y20846D01*
X90477Y21037D01*
X90857Y21227D01*
X91429D01*
X91810Y20846D01*
X92000Y20275D01*
Y19513D01*
X91810Y18942D01*
X91429Y18561D01*
X88953Y22313D02*
X88763D01*
X88382Y22503D01*
X88191Y22694D01*
X88001Y23075D01*
Y23836D01*
X88191Y24217D01*
X88382Y24408D01*
X88763Y24598D01*
X89144D01*
X89524Y24408D01*
X90096Y24027D01*
X92000Y22122D01*
Y24788D01*
X20501Y16000D02*
X24500D01*
X20501D02*
Y17333D01*
X20691Y17904D01*
X21072Y18285D01*
X21453Y18476D01*
X22024Y18666D01*
X22976D01*
X23548Y18476D01*
X23929Y18285D01*
X24310Y17904D01*
X24500Y17333D01*
Y16000D01*
X21072Y22227D02*
X20691Y21846D01*
X20501Y21275D01*
Y20513D01*
X20691Y19942D01*
X21072Y19561D01*
X21453D01*
X21834Y19752D01*
X22024Y19942D01*
X22215Y20323D01*
X22596Y21465D01*
X22786Y21846D01*
X22976Y22037D01*
X23357Y22227D01*
X23929D01*
X24310Y21846D01*
X24500Y21275D01*
Y20513D01*
X24310Y19942D01*
X23929Y19561D01*
X21263Y23122D02*
X21072Y23503D01*
X20501Y24074D01*
X24500D01*
X84356Y58547D02*
X84166Y58928D01*
X83785Y59309D01*
X83404Y59499D01*
X82643D01*
X82262Y59309D01*
X81881Y58928D01*
X81690Y58547D01*
X81500Y57976D01*
Y57024D01*
X81690Y56452D01*
X81881Y56071D01*
X82262Y55690D01*
X82643Y55500D01*
X83404D01*
X83785Y55690D01*
X84166Y56071D01*
X84356Y56452D01*
X85671Y58547D02*
Y58737D01*
X85861Y59118D01*
X86051Y59309D01*
X86432Y59499D01*
X87194D01*
X87575Y59309D01*
X87765Y59118D01*
X87956Y58737D01*
Y58356D01*
X87765Y57976D01*
X87384Y57404D01*
X85480Y55500D01*
X88146D01*
X51357Y58547D02*
X51166Y58928D01*
X50785Y59309D01*
X50404Y59499D01*
X49643D01*
X49262Y59309D01*
X48881Y58928D01*
X48690Y58547D01*
X48500Y57976D01*
Y57024D01*
X48690Y56452D01*
X48881Y56071D01*
X49262Y55690D01*
X49643Y55500D01*
X50404D01*
X50785Y55690D01*
X51166Y56071D01*
X51357Y56452D01*
X52480Y58737D02*
X52861Y58928D01*
X53432Y59499D01*
Y55500D01*
M02*
