G04*
G04 #@! TF.GenerationSoftware,Altium Limited,Altium Designer,18.1.9 (240)*
G04*
G04 Layer_Color=2752767*
%FSLAX25Y25*%
%MOIN*%
G70*
G01*
G75*
%ADD12C,0.01000*%
%ADD34C,0.00200*%
%ADD35C,0.00267*%
%ADD36C,0.01600*%
%ADD37C,0.01067*%
D12*
X58906Y135498D02*
X63096D01*
X60811Y132451D01*
X61953D01*
X62715Y132071D01*
X63096Y131690D01*
X63477Y130547D01*
Y129785D01*
X63096Y128643D01*
X62334Y127881D01*
X61192Y127500D01*
X60049D01*
X58906Y127881D01*
X58526Y128262D01*
X58145Y129024D01*
X134398Y133594D02*
Y133975D01*
X134779Y134737D01*
X135160Y135117D01*
X135922Y135498D01*
X137445D01*
X138207Y135117D01*
X138588Y134737D01*
X138969Y133975D01*
Y133213D01*
X138588Y132451D01*
X137826Y131309D01*
X134017Y127500D01*
X139349D01*
X143425Y135498D02*
X142282Y135117D01*
X141520Y133975D01*
X141139Y132071D01*
Y130928D01*
X141520Y129024D01*
X142282Y127881D01*
X143425Y127500D01*
X144186D01*
X145329Y127881D01*
X146091Y129024D01*
X146472Y130928D01*
Y132071D01*
X146091Y133975D01*
X145329Y135117D01*
X144186Y135498D01*
X143425D01*
X148262Y132832D02*
Y127500D01*
Y131309D02*
X149404Y132451D01*
X150166Y132832D01*
X151309D01*
X152070Y132451D01*
X152451Y131309D01*
Y127500D01*
Y131309D02*
X153594Y132451D01*
X154356Y132832D01*
X155498D01*
X156260Y132451D01*
X156641Y131309D01*
Y127500D01*
X159916Y135498D02*
X160297Y135117D01*
X160678Y135498D01*
X160297Y135879D01*
X159916Y135498D01*
X160297Y132832D02*
Y127500D01*
X162087Y135498D02*
Y127500D01*
X172714Y137022D02*
X171952Y136260D01*
X171190Y135117D01*
X170429Y133594D01*
X170048Y131690D01*
Y130166D01*
X170429Y128262D01*
X171190Y126738D01*
X171952Y125596D01*
X172714Y124834D01*
X171952Y136260D02*
X171190Y134737D01*
X170809Y133594D01*
X170429Y131690D01*
Y130166D01*
X170809Y128262D01*
X171190Y127119D01*
X171952Y125596D01*
X176522Y135498D02*
X175380Y135117D01*
X174618Y133975D01*
X174237Y132071D01*
Y130928D01*
X174618Y129024D01*
X175380Y127881D01*
X176522Y127500D01*
X177284D01*
X178427Y127881D01*
X179189Y129024D01*
X179569Y130928D01*
Y132071D01*
X179189Y133975D01*
X178427Y135117D01*
X177284Y135498D01*
X176522D01*
X181740Y128262D02*
X181360Y127881D01*
X181740Y127500D01*
X182121Y127881D01*
X181740Y128262D01*
X188444Y135498D02*
X184635D01*
X184254Y132071D01*
X184635Y132451D01*
X185778Y132832D01*
X186920D01*
X188063Y132451D01*
X188824Y131690D01*
X189205Y130547D01*
Y129785D01*
X188824Y128643D01*
X188063Y127881D01*
X186920Y127500D01*
X185778D01*
X184635Y127881D01*
X184254Y128262D01*
X183873Y129024D01*
X193281Y135498D02*
X192138Y135117D01*
X191376Y133975D01*
X190996Y132071D01*
Y130928D01*
X191376Y129024D01*
X192138Y127881D01*
X193281Y127500D01*
X194043D01*
X195185Y127881D01*
X195947Y129024D01*
X196328Y130928D01*
Y132071D01*
X195947Y133975D01*
X195185Y135117D01*
X194043Y135498D01*
X193281D01*
X200022D02*
X198880Y135117D01*
X198499Y134356D01*
Y133594D01*
X198880Y132832D01*
X199641Y132451D01*
X201165Y132071D01*
X202307Y131690D01*
X203069Y130928D01*
X203450Y130166D01*
Y129024D01*
X203069Y128262D01*
X202688Y127881D01*
X201546Y127500D01*
X200022D01*
X198880Y127881D01*
X198499Y128262D01*
X198118Y129024D01*
Y130166D01*
X198499Y130928D01*
X199260Y131690D01*
X200403Y132071D01*
X201926Y132451D01*
X202688Y132832D01*
X203069Y133594D01*
Y134356D01*
X202688Y135117D01*
X201546Y135498D01*
X200022D01*
X205240Y132832D02*
Y127500D01*
Y131309D02*
X206383Y132451D01*
X207144Y132832D01*
X208287D01*
X209049Y132451D01*
X209430Y131309D01*
Y127500D01*
Y131309D02*
X210572Y132451D01*
X211334Y132832D01*
X212477D01*
X213238Y132451D01*
X213619Y131309D01*
Y127500D01*
X216133Y132832D02*
Y127500D01*
Y131309D02*
X217276Y132451D01*
X218037Y132832D01*
X219180D01*
X219942Y132451D01*
X220322Y131309D01*
Y127500D01*
Y131309D02*
X221465Y132451D01*
X222227Y132832D01*
X223370D01*
X224131Y132451D01*
X224512Y131309D01*
Y127500D01*
X227026Y137022D02*
X227788Y136260D01*
X228549Y135117D01*
X229311Y133594D01*
X229692Y131690D01*
Y130166D01*
X229311Y128262D01*
X228549Y126738D01*
X227788Y125596D01*
X227026Y124834D01*
X227788Y136260D02*
X228549Y134737D01*
X228930Y133594D01*
X229311Y131690D01*
Y130166D01*
X228930Y128262D01*
X228549Y127119D01*
X227788Y125596D01*
X266518Y131309D02*
X269946D01*
X271088Y131690D01*
X271469Y132071D01*
X271850Y132832D01*
Y133975D01*
X271469Y134737D01*
X271088Y135117D01*
X269946Y135498D01*
X266518D01*
Y127500D01*
X276306Y135498D02*
Y127500D01*
X273640Y135498D02*
X278972D01*
X279924D02*
Y127500D01*
X285257Y135498D02*
Y127500D01*
X279924Y131690D02*
X285257D01*
X317573Y135498D02*
Y127500D01*
Y135498D02*
X321001D01*
X322143Y135117D01*
X322524Y134737D01*
X322905Y133975D01*
Y133213D01*
X322524Y132451D01*
X322143Y132071D01*
X321001Y131690D01*
X317573D01*
X320239D02*
X322905Y127500D01*
X326599Y132832D02*
X325837Y132451D01*
X325076Y131690D01*
X324695Y130547D01*
Y129785D01*
X325076Y128643D01*
X325837Y127881D01*
X326599Y127500D01*
X327742D01*
X328504Y127881D01*
X329265Y128643D01*
X329646Y129785D01*
Y130547D01*
X329265Y131690D01*
X328504Y132451D01*
X327742Y132832D01*
X326599D01*
X331398D02*
Y129024D01*
X331779Y127881D01*
X332541Y127500D01*
X333683D01*
X334445Y127881D01*
X335588Y129024D01*
Y132832D02*
Y127500D01*
X337683Y132832D02*
Y127500D01*
Y131309D02*
X338825Y132451D01*
X339587Y132832D01*
X340730D01*
X341491Y132451D01*
X341872Y131309D01*
Y127500D01*
X348537Y135498D02*
Y127500D01*
Y131690D02*
X347776Y132451D01*
X347014Y132832D01*
X345871D01*
X345110Y132451D01*
X344348Y131690D01*
X343967Y130547D01*
Y129785D01*
X344348Y128643D01*
X345110Y127881D01*
X345871Y127500D01*
X347014D01*
X347776Y127881D01*
X348537Y128643D01*
X61953Y119498D02*
X58145Y114166D01*
X63858D01*
X61953Y119498D02*
Y111500D01*
X134779Y119498D02*
X138969D01*
X136683Y116451D01*
X137826D01*
X138588Y116070D01*
X138969Y115690D01*
X139349Y114547D01*
Y113785D01*
X138969Y112643D01*
X138207Y111881D01*
X137064Y111500D01*
X135922D01*
X134779Y111881D01*
X134398Y112262D01*
X134017Y113023D01*
X143425Y119498D02*
X142282Y119117D01*
X141520Y117975D01*
X141139Y116070D01*
Y114928D01*
X141520Y113023D01*
X142282Y111881D01*
X143425Y111500D01*
X144186D01*
X145329Y111881D01*
X146091Y113023D01*
X146472Y114928D01*
Y116070D01*
X146091Y117975D01*
X145329Y119117D01*
X144186Y119498D01*
X143425D01*
X148262Y116832D02*
Y111500D01*
Y115309D02*
X149404Y116451D01*
X150166Y116832D01*
X151309D01*
X152070Y116451D01*
X152451Y115309D01*
Y111500D01*
Y115309D02*
X153594Y116451D01*
X154356Y116832D01*
X155498D01*
X156260Y116451D01*
X156641Y115309D01*
Y111500D01*
X159916Y119498D02*
X160297Y119117D01*
X160678Y119498D01*
X160297Y119879D01*
X159916Y119498D01*
X160297Y116832D02*
Y111500D01*
X162087Y119498D02*
Y111500D01*
X172714Y121022D02*
X171952Y120260D01*
X171190Y119117D01*
X170429Y117594D01*
X170048Y115690D01*
Y114166D01*
X170429Y112262D01*
X171190Y110738D01*
X171952Y109596D01*
X172714Y108834D01*
X171952Y120260D02*
X171190Y118737D01*
X170809Y117594D01*
X170429Y115690D01*
Y114166D01*
X170809Y112262D01*
X171190Y111119D01*
X171952Y109596D01*
X176522Y119498D02*
X175380Y119117D01*
X174618Y117975D01*
X174237Y116070D01*
Y114928D01*
X174618Y113023D01*
X175380Y111881D01*
X176522Y111500D01*
X177284D01*
X178427Y111881D01*
X179189Y113023D01*
X179569Y114928D01*
Y116070D01*
X179189Y117975D01*
X178427Y119117D01*
X177284Y119498D01*
X176522D01*
X181740Y112262D02*
X181360Y111881D01*
X181740Y111500D01*
X182121Y111881D01*
X181740Y112262D01*
X189205Y119498D02*
X185397Y111500D01*
X183873Y119498D02*
X189205D01*
X195566Y118356D02*
X195185Y119117D01*
X194043Y119498D01*
X193281D01*
X192138Y119117D01*
X191376Y117975D01*
X190996Y116070D01*
Y114166D01*
X191376Y112643D01*
X192138Y111881D01*
X193281Y111500D01*
X193662D01*
X194804Y111881D01*
X195566Y112643D01*
X195947Y113785D01*
Y114166D01*
X195566Y115309D01*
X194804Y116070D01*
X193662Y116451D01*
X193281D01*
X192138Y116070D01*
X191376Y115309D01*
X190996Y114166D01*
X198080Y117594D02*
Y117975D01*
X198461Y118737D01*
X198841Y119117D01*
X199603Y119498D01*
X201127D01*
X201888Y119117D01*
X202269Y118737D01*
X202650Y117975D01*
Y117213D01*
X202269Y116451D01*
X201507Y115309D01*
X197699Y111500D01*
X203031D01*
X204821Y116832D02*
Y111500D01*
Y115309D02*
X205964Y116451D01*
X206726Y116832D01*
X207868D01*
X208630Y116451D01*
X209011Y115309D01*
Y111500D01*
Y115309D02*
X210153Y116451D01*
X210915Y116832D01*
X212058D01*
X212819Y116451D01*
X213200Y115309D01*
Y111500D01*
X215714Y116832D02*
Y111500D01*
Y115309D02*
X216857Y116451D01*
X217618Y116832D01*
X218761D01*
X219523Y116451D01*
X219904Y115309D01*
Y111500D01*
Y115309D02*
X221046Y116451D01*
X221808Y116832D01*
X222951D01*
X223712Y116451D01*
X224093Y115309D01*
Y111500D01*
X226607Y121022D02*
X227369Y120260D01*
X228130Y119117D01*
X228892Y117594D01*
X229273Y115690D01*
Y114166D01*
X228892Y112262D01*
X228130Y110738D01*
X227369Y109596D01*
X226607Y108834D01*
X227369Y120260D02*
X228130Y118737D01*
X228511Y117594D01*
X228892Y115690D01*
Y114166D01*
X228511Y112262D01*
X228130Y111119D01*
X227369Y109596D01*
X266518Y115309D02*
X269946D01*
X271088Y115690D01*
X271469Y116070D01*
X271850Y116832D01*
Y117975D01*
X271469Y118737D01*
X271088Y119117D01*
X269946Y119498D01*
X266518D01*
Y111500D01*
X276306Y119498D02*
Y111500D01*
X273640Y119498D02*
X278972D01*
X279924D02*
Y111500D01*
X285257Y119498D02*
Y111500D01*
X279924Y115690D02*
X285257D01*
X317573Y119498D02*
Y111500D01*
Y119498D02*
X321001D01*
X322143Y119117D01*
X322524Y118737D01*
X322905Y117975D01*
Y117213D01*
X322524Y116451D01*
X322143Y116070D01*
X321001Y115690D01*
X317573D01*
X320239D02*
X322905Y111500D01*
X326599Y116832D02*
X325837Y116451D01*
X325076Y115690D01*
X324695Y114547D01*
Y113785D01*
X325076Y112643D01*
X325837Y111881D01*
X326599Y111500D01*
X327742D01*
X328504Y111881D01*
X329265Y112643D01*
X329646Y113785D01*
Y114547D01*
X329265Y115690D01*
X328504Y116451D01*
X327742Y116832D01*
X326599D01*
X331398D02*
Y113023D01*
X331779Y111881D01*
X332541Y111500D01*
X333683D01*
X334445Y111881D01*
X335588Y113023D01*
Y116832D02*
Y111500D01*
X337683Y116832D02*
Y111500D01*
Y115309D02*
X338825Y116451D01*
X339587Y116832D01*
X340730D01*
X341491Y116451D01*
X341872Y115309D01*
Y111500D01*
X348537Y119498D02*
Y111500D01*
Y115690D02*
X347776Y116451D01*
X347014Y116832D01*
X345871D01*
X345110Y116451D01*
X344348Y115690D01*
X343967Y114547D01*
Y113785D01*
X344348Y112643D01*
X345110Y111881D01*
X345871Y111500D01*
X347014D01*
X347776Y111881D01*
X348537Y112643D01*
X61953Y103498D02*
X58145Y98166D01*
X63858D01*
X61953Y103498D02*
Y95500D01*
X134779Y103498D02*
X138969D01*
X136683Y100451D01*
X137826D01*
X138588Y100071D01*
X138969Y99690D01*
X139349Y98547D01*
Y97785D01*
X138969Y96643D01*
X138207Y95881D01*
X137064Y95500D01*
X135922D01*
X134779Y95881D01*
X134398Y96262D01*
X134017Y97023D01*
X145710Y103498D02*
X141901D01*
X141520Y100071D01*
X141901Y100451D01*
X143044Y100832D01*
X144186D01*
X145329Y100451D01*
X146091Y99690D01*
X146472Y98547D01*
Y97785D01*
X146091Y96643D01*
X145329Y95881D01*
X144186Y95500D01*
X143044D01*
X141901Y95881D01*
X141520Y96262D01*
X141139Y97023D01*
X148643Y96262D02*
X148262Y95881D01*
X148643Y95500D01*
X149023Y95881D01*
X148643Y96262D01*
X154584Y103498D02*
X150776Y98166D01*
X156489D01*
X154584Y103498D02*
Y95500D01*
X158660Y103498D02*
X162849D01*
X160564Y100451D01*
X161706D01*
X162468Y100071D01*
X162849Y99690D01*
X163230Y98547D01*
Y97785D01*
X162849Y96643D01*
X162087Y95881D01*
X160945Y95500D01*
X159802D01*
X158660Y95881D01*
X158279Y96262D01*
X157898Y97023D01*
X165782Y103498D02*
X169971D01*
X167686Y100451D01*
X168829D01*
X169591Y100071D01*
X169971Y99690D01*
X170352Y98547D01*
Y97785D01*
X169971Y96643D01*
X169210Y95881D01*
X168067Y95500D01*
X166925D01*
X165782Y95881D01*
X165401Y96262D01*
X165020Y97023D01*
X172142Y100832D02*
Y95500D01*
Y99309D02*
X173285Y100451D01*
X174047Y100832D01*
X175189D01*
X175951Y100451D01*
X176332Y99309D01*
Y95500D01*
Y99309D02*
X177475Y100451D01*
X178236Y100832D01*
X179379D01*
X180141Y100451D01*
X180522Y99309D01*
Y95500D01*
X183797Y103498D02*
X184178Y103117D01*
X184559Y103498D01*
X184178Y103879D01*
X183797Y103498D01*
X184178Y100832D02*
Y95500D01*
X185968Y103498D02*
Y95500D01*
X196594Y105022D02*
X195833Y104260D01*
X195071Y103117D01*
X194309Y101594D01*
X193928Y99690D01*
Y98166D01*
X194309Y96262D01*
X195071Y94738D01*
X195833Y93596D01*
X196594Y92834D01*
X195833Y104260D02*
X195071Y102736D01*
X194690Y101594D01*
X194309Y99690D01*
Y98166D01*
X194690Y96262D01*
X195071Y95119D01*
X195833Y93596D01*
X200403Y103498D02*
X199260Y103117D01*
X198499Y101975D01*
X198118Y100071D01*
Y98928D01*
X198499Y97023D01*
X199260Y95881D01*
X200403Y95500D01*
X201165D01*
X202307Y95881D01*
X203069Y97023D01*
X203450Y98928D01*
Y100071D01*
X203069Y101975D01*
X202307Y103117D01*
X201165Y103498D01*
X200403D01*
X205621Y96262D02*
X205240Y95881D01*
X205621Y95500D01*
X206002Y95881D01*
X205621Y96262D01*
X212705Y100832D02*
X212324Y99690D01*
X211562Y98928D01*
X210420Y98547D01*
X210039D01*
X208896Y98928D01*
X208135Y99690D01*
X207754Y100832D01*
Y101213D01*
X208135Y102356D01*
X208896Y103117D01*
X210039Y103498D01*
X210420D01*
X211562Y103117D01*
X212324Y102356D01*
X212705Y100832D01*
Y98928D01*
X212324Y97023D01*
X211562Y95881D01*
X210420Y95500D01*
X209658D01*
X208516Y95881D01*
X208135Y96643D01*
X214876Y100832D02*
Y95500D01*
Y99309D02*
X216019Y100451D01*
X216780Y100832D01*
X217923D01*
X218685Y100451D01*
X219066Y99309D01*
Y95500D01*
Y99309D02*
X220208Y100451D01*
X220970Y100832D01*
X222113D01*
X222874Y100451D01*
X223255Y99309D01*
Y95500D01*
X225769Y100832D02*
Y95500D01*
Y99309D02*
X226912Y100451D01*
X227673Y100832D01*
X228816D01*
X229578Y100451D01*
X229959Y99309D01*
Y95500D01*
Y99309D02*
X231101Y100451D01*
X231863Y100832D01*
X233005D01*
X233767Y100451D01*
X234148Y99309D01*
Y95500D01*
X236662Y105022D02*
X237424Y104260D01*
X238185Y103117D01*
X238947Y101594D01*
X239328Y99690D01*
Y98166D01*
X238947Y96262D01*
X238185Y94738D01*
X237424Y93596D01*
X236662Y92834D01*
X237424Y104260D02*
X238185Y102736D01*
X238566Y101594D01*
X238947Y99690D01*
Y98166D01*
X238566Y96262D01*
X238185Y95119D01*
X237424Y93596D01*
X266518Y99309D02*
X269946D01*
X271088Y99690D01*
X271469Y100071D01*
X271850Y100832D01*
Y101975D01*
X271469Y102736D01*
X271088Y103117D01*
X269946Y103498D01*
X266518D01*
Y95500D01*
X276306Y103498D02*
Y95500D01*
X273640Y103498D02*
X278972D01*
X279924D02*
Y95500D01*
X285257Y103498D02*
Y95500D01*
X279924Y99690D02*
X285257D01*
X317573Y103498D02*
Y95500D01*
Y103498D02*
X321001D01*
X322143Y103117D01*
X322524Y102736D01*
X322905Y101975D01*
Y101213D01*
X322524Y100451D01*
X322143Y100071D01*
X321001Y99690D01*
X317573D01*
X320239D02*
X322905Y95500D01*
X326599Y100832D02*
X325837Y100451D01*
X325076Y99690D01*
X324695Y98547D01*
Y97785D01*
X325076Y96643D01*
X325837Y95881D01*
X326599Y95500D01*
X327742D01*
X328504Y95881D01*
X329265Y96643D01*
X329646Y97785D01*
Y98547D01*
X329265Y99690D01*
X328504Y100451D01*
X327742Y100832D01*
X326599D01*
X331398D02*
Y97023D01*
X331779Y95881D01*
X332541Y95500D01*
X333683D01*
X334445Y95881D01*
X335588Y97023D01*
Y100832D02*
Y95500D01*
X337683Y100832D02*
Y95500D01*
Y99309D02*
X338825Y100451D01*
X339587Y100832D01*
X340730D01*
X341491Y100451D01*
X341872Y99309D01*
Y95500D01*
X348537Y103498D02*
Y95500D01*
Y99690D02*
X347776Y100451D01*
X347014Y100832D01*
X345871D01*
X345110Y100451D01*
X344348Y99690D01*
X343967Y98547D01*
Y97785D01*
X344348Y96643D01*
X345110Y95881D01*
X345871Y95500D01*
X347014D01*
X347776Y95881D01*
X348537Y96643D01*
X58145Y85975D02*
X58906Y86356D01*
X60049Y87498D01*
Y79500D01*
X64010Y85975D02*
X64772Y86356D01*
X65914Y87498D01*
Y79500D01*
X81781Y87498D02*
Y79500D01*
X79114Y87498D02*
X84447D01*
X87303Y84832D02*
X86541Y84451D01*
X85780Y83690D01*
X85399Y82547D01*
Y81785D01*
X85780Y80643D01*
X86541Y79881D01*
X87303Y79500D01*
X88446D01*
X89208Y79881D01*
X89969Y80643D01*
X90350Y81785D01*
Y82547D01*
X89969Y83690D01*
X89208Y84451D01*
X88446Y84832D01*
X87303D01*
X93245Y87498D02*
Y81024D01*
X93626Y79881D01*
X94387Y79500D01*
X95149D01*
X92102Y84832D02*
X94768D01*
X100862D02*
Y79500D01*
Y83690D02*
X100100Y84451D01*
X99339Y84832D01*
X98196D01*
X97434Y84451D01*
X96673Y83690D01*
X96292Y82547D01*
Y81785D01*
X96673Y80643D01*
X97434Y79881D01*
X98196Y79500D01*
X99339D01*
X100100Y79881D01*
X100862Y80643D01*
X102995Y87498D02*
Y79500D01*
D34*
X131700Y28200D02*
Y29800D01*
X133300D01*
Y28200D01*
X131700D01*
Y38200D02*
Y39800D01*
X133300D01*
Y38200D01*
X131700D01*
X6200Y28700D02*
Y30300D01*
X7800D01*
Y28700D01*
X6200D01*
Y38700D02*
Y40300D01*
X7800D01*
Y38700D01*
X6200D01*
X102000Y26200D02*
X101200Y27800D01*
X102800D01*
X102000Y26200D01*
X35500Y10700D02*
X34700Y12300D01*
X36300D01*
X35500Y10700D01*
X78000Y32200D02*
X77200Y33800D01*
X78800D01*
X78000Y32200D01*
X2200Y128300D02*
X-1000Y134700D01*
X5400D01*
X2200Y128300D01*
X-1000Y96300D02*
Y102700D01*
X5400D01*
Y96300D01*
X-1000D01*
D35*
X96300Y48000D02*
G03*
X96300Y48000I-800J0D01*
G01*
X111300D02*
G03*
X111300Y48000I-800J0D01*
G01*
X42300Y48500D02*
G03*
X42300Y48500I-800J0D01*
G01*
X27300D02*
G03*
X27300Y48500I-800J0D01*
G01*
D36*
X5399Y154927D02*
X4484Y155841D01*
X3113Y156298D01*
X1285D01*
X-86Y155841D01*
X-1000Y154927D01*
Y154013D01*
X-543Y153099D01*
X-86Y152642D01*
X828Y152184D01*
X3571Y151270D01*
X4484Y150813D01*
X4942Y150356D01*
X5399Y149442D01*
Y148071D01*
X4484Y147157D01*
X3113Y146700D01*
X1285D01*
X-86Y147157D01*
X-1000Y148071D01*
X8004Y153099D02*
X10746Y146700D01*
X13488Y153099D02*
X10746Y146700D01*
X9832Y144872D01*
X8918Y143958D01*
X8004Y143501D01*
X7547D01*
X15088Y153099D02*
Y146700D01*
Y151270D02*
X16459Y152642D01*
X17373Y153099D01*
X18744D01*
X19658Y152642D01*
X20116Y151270D01*
Y146700D01*
Y151270D02*
X21487Y152642D01*
X22401Y153099D01*
X23772D01*
X24686Y152642D01*
X25143Y151270D01*
Y146700D01*
X28159Y156298D02*
Y146700D01*
Y151727D02*
X29074Y152642D01*
X29988Y153099D01*
X31359D01*
X32273Y152642D01*
X33187Y151727D01*
X33644Y150356D01*
Y149442D01*
X33187Y148071D01*
X32273Y147157D01*
X31359Y146700D01*
X29988D01*
X29074Y147157D01*
X28159Y148071D01*
X37986Y153099D02*
X37072Y152642D01*
X36158Y151727D01*
X35701Y150356D01*
Y149442D01*
X36158Y148071D01*
X37072Y147157D01*
X37986Y146700D01*
X39357D01*
X40271Y147157D01*
X41185Y148071D01*
X41642Y149442D01*
Y150356D01*
X41185Y151727D01*
X40271Y152642D01*
X39357Y153099D01*
X37986D01*
X43745Y156298D02*
Y146700D01*
X58145Y156298D02*
Y146700D01*
X64543Y156298D02*
Y146700D01*
X58145Y151727D02*
X64543D01*
X68108Y156298D02*
X68565Y155841D01*
X69022Y156298D01*
X68565Y156755D01*
X68108Y156298D01*
X68565Y153099D02*
Y146700D01*
X72085Y156298D02*
Y148528D01*
X72542Y147157D01*
X73456Y146700D01*
X74370D01*
X70713Y153099D02*
X73913D01*
X90138Y154013D02*
X89681Y154927D01*
X88767Y155841D01*
X87853Y156298D01*
X86024D01*
X85110Y155841D01*
X84196Y154927D01*
X83739Y154013D01*
X83282Y152642D01*
Y150356D01*
X83739Y148985D01*
X84196Y148071D01*
X85110Y147157D01*
X86024Y146700D01*
X87853D01*
X88767Y147157D01*
X89681Y148071D01*
X90138Y148985D01*
X95120Y153099D02*
X94205Y152642D01*
X93291Y151727D01*
X92834Y150356D01*
Y149442D01*
X93291Y148071D01*
X94205Y147157D01*
X95120Y146700D01*
X96491D01*
X97405Y147157D01*
X98319Y148071D01*
X98776Y149442D01*
Y150356D01*
X98319Y151727D01*
X97405Y152642D01*
X96491Y153099D01*
X95120D01*
X100878D02*
Y148528D01*
X101335Y147157D01*
X102250Y146700D01*
X103621D01*
X104535Y147157D01*
X105906Y148528D01*
Y153099D02*
Y146700D01*
X108420Y153099D02*
Y146700D01*
Y151270D02*
X109791Y152642D01*
X110705Y153099D01*
X112076D01*
X112990Y152642D01*
X113447Y151270D01*
Y146700D01*
X117332Y156298D02*
Y148528D01*
X117789Y147157D01*
X118703Y146700D01*
X119617D01*
X115961Y153099D02*
X119160D01*
X134017Y156298D02*
Y146700D01*
Y156298D02*
X139959D01*
X134017Y151727D02*
X137674D01*
X141970Y156298D02*
X142427Y155841D01*
X142884Y156298D01*
X142427Y156755D01*
X141970Y156298D01*
X142427Y153099D02*
Y146700D01*
X144575Y153099D02*
Y146700D01*
Y151270D02*
X145946Y152642D01*
X146860Y153099D01*
X148231D01*
X149145Y152642D01*
X149602Y151270D01*
Y146700D01*
X153030Y156298D02*
X153487Y155841D01*
X153944Y156298D01*
X153487Y156755D01*
X153030Y156298D01*
X153487Y153099D02*
Y146700D01*
X160663Y151727D02*
X160206Y152642D01*
X158835Y153099D01*
X157464D01*
X156093Y152642D01*
X155635Y151727D01*
X156093Y150813D01*
X157007Y150356D01*
X159292Y149899D01*
X160206Y149442D01*
X160663Y148528D01*
Y148071D01*
X160206Y147157D01*
X158835Y146700D01*
X157464D01*
X156093Y147157D01*
X155635Y148071D01*
X162674Y156298D02*
Y146700D01*
Y151270D02*
X164045Y152642D01*
X164959Y153099D01*
X166330D01*
X167244Y152642D01*
X167701Y151270D01*
Y146700D01*
X170215Y150356D02*
X175700D01*
Y151270D01*
X175243Y152184D01*
X174786Y152642D01*
X173872Y153099D01*
X172500D01*
X171586Y152642D01*
X170672Y151727D01*
X170215Y150356D01*
Y149442D01*
X170672Y148071D01*
X171586Y147157D01*
X172500Y146700D01*
X173872D01*
X174786Y147157D01*
X175700Y148071D01*
X183241Y156298D02*
Y146700D01*
Y151727D02*
X182327Y152642D01*
X181413Y153099D01*
X180042D01*
X179128Y152642D01*
X178214Y151727D01*
X177756Y150356D01*
Y149442D01*
X178214Y148071D01*
X179128Y147157D01*
X180042Y146700D01*
X181413D01*
X182327Y147157D01*
X183241Y148071D01*
X193342Y156298D02*
Y146700D01*
X199740Y156298D02*
Y146700D01*
X193342Y151727D02*
X199740D01*
X204676Y153099D02*
X203762Y152642D01*
X202848Y151727D01*
X202391Y150356D01*
Y149442D01*
X202848Y148071D01*
X203762Y147157D01*
X204676Y146700D01*
X206048D01*
X206962Y147157D01*
X207876Y148071D01*
X208333Y149442D01*
Y150356D01*
X207876Y151727D01*
X206962Y152642D01*
X206048Y153099D01*
X204676D01*
X210435Y156298D02*
Y146700D01*
X212446Y150356D02*
X217931D01*
Y151270D01*
X217474Y152184D01*
X217017Y152642D01*
X216103Y153099D01*
X214731D01*
X213817Y152642D01*
X212903Y151727D01*
X212446Y150356D01*
Y149442D01*
X212903Y148071D01*
X213817Y147157D01*
X214731Y146700D01*
X216103D01*
X217017Y147157D01*
X217931Y148071D01*
X233927Y154927D02*
X233013Y155841D01*
X231642Y156298D01*
X229814D01*
X228443Y155841D01*
X227529Y154927D01*
Y154013D01*
X227986Y153099D01*
X228443Y152642D01*
X229357Y152184D01*
X232099Y151270D01*
X233013Y150813D01*
X233470Y150356D01*
X233927Y149442D01*
Y148071D01*
X233013Y147157D01*
X231642Y146700D01*
X229814D01*
X228443Y147157D01*
X227529Y148071D01*
X236989Y156298D02*
X237446Y155841D01*
X237903Y156298D01*
X237446Y156755D01*
X236989Y156298D01*
X237446Y153099D02*
Y146700D01*
X244622Y153099D02*
X239595Y146700D01*
Y153099D02*
X244622D01*
X239595Y146700D02*
X244622D01*
X246633Y150356D02*
X252118D01*
Y151270D01*
X251661Y152184D01*
X251203Y152642D01*
X250290Y153099D01*
X248918D01*
X248004Y152642D01*
X247090Y151727D01*
X246633Y150356D01*
Y149442D01*
X247090Y148071D01*
X248004Y147157D01*
X248918Y146700D01*
X250290D01*
X251203Y147157D01*
X252118Y148071D01*
X266518Y151270D02*
X270631D01*
X272002Y151727D01*
X272459Y152184D01*
X272916Y153099D01*
Y154470D01*
X272459Y155384D01*
X272002Y155841D01*
X270631Y156298D01*
X266518D01*
Y146700D01*
X275064Y156298D02*
Y146700D01*
X282560Y153099D02*
Y146700D01*
Y151727D02*
X281646Y152642D01*
X280732Y153099D01*
X279361D01*
X278447Y152642D01*
X277532Y151727D01*
X277075Y150356D01*
Y149442D01*
X277532Y148071D01*
X278447Y147157D01*
X279361Y146700D01*
X280732D01*
X281646Y147157D01*
X282560Y148071D01*
X286491Y156298D02*
Y148528D01*
X286948Y147157D01*
X287862Y146700D01*
X288776D01*
X285119Y153099D02*
X288319D01*
X290147Y150356D02*
X295631D01*
Y151270D01*
X295174Y152184D01*
X294717Y152642D01*
X293803Y153099D01*
X292432D01*
X291518Y152642D01*
X290604Y151727D01*
X290147Y150356D01*
Y149442D01*
X290604Y148071D01*
X291518Y147157D01*
X292432Y146700D01*
X293803D01*
X294717Y147157D01*
X295631Y148071D01*
X303173Y156298D02*
Y146700D01*
Y151727D02*
X302259Y152642D01*
X301344Y153099D01*
X299973D01*
X299059Y152642D01*
X298145Y151727D01*
X297688Y150356D01*
Y149442D01*
X298145Y148071D01*
X299059Y147157D01*
X299973Y146700D01*
X301344D01*
X302259Y147157D01*
X303173Y148071D01*
X317573Y156298D02*
Y146700D01*
X323971Y156298D02*
Y146700D01*
X317573Y151727D02*
X323971D01*
X328907Y153099D02*
X327993Y152642D01*
X327079Y151727D01*
X326622Y150356D01*
Y149442D01*
X327079Y148071D01*
X327993Y147157D01*
X328907Y146700D01*
X330278D01*
X331193Y147157D01*
X332107Y148071D01*
X332564Y149442D01*
Y150356D01*
X332107Y151727D01*
X331193Y152642D01*
X330278Y153099D01*
X328907D01*
X334666Y156298D02*
Y146700D01*
X336677Y150356D02*
X342162D01*
Y151270D01*
X341705Y152184D01*
X341248Y152642D01*
X340334Y153099D01*
X338962D01*
X338048Y152642D01*
X337134Y151727D01*
X336677Y150356D01*
Y149442D01*
X337134Y148071D01*
X338048Y147157D01*
X338962Y146700D01*
X340334D01*
X341248Y147157D01*
X342162Y148071D01*
X354959Y156298D02*
Y146700D01*
X351760Y156298D02*
X358158D01*
X359758Y153099D02*
X362500Y146700D01*
X365242Y153099D02*
X362500Y146700D01*
X361586Y144872D01*
X360672Y143958D01*
X359758Y143501D01*
X359301D01*
X366842Y153099D02*
Y143501D01*
Y151727D02*
X367756Y152642D01*
X368670Y153099D01*
X370041D01*
X370955Y152642D01*
X371870Y151727D01*
X372327Y150356D01*
Y149442D01*
X371870Y148071D01*
X370955Y147157D01*
X370041Y146700D01*
X368670D01*
X367756Y147157D01*
X366842Y148071D01*
X374383Y150356D02*
X379868D01*
Y151270D01*
X379411Y152184D01*
X378954Y152642D01*
X378040Y153099D01*
X376669D01*
X375754Y152642D01*
X374840Y151727D01*
X374383Y150356D01*
Y149442D01*
X374840Y148071D01*
X375754Y147157D01*
X376669Y146700D01*
X378040D01*
X378954Y147157D01*
X379868Y148071D01*
X-12200Y161100D02*
X394268D01*
X-12200Y139500D02*
X394268D01*
X-12200Y161100D02*
Y75500D01*
X394268Y161100D02*
Y75500D01*
X52545Y161100D02*
Y75500D01*
X128417Y161100D02*
Y75500D01*
X260918Y161100D02*
Y75500D01*
X311973Y161100D02*
Y75500D01*
X-12200Y91500D02*
X394268D01*
X-12200Y75500D02*
X394268D01*
D37*
X5400Y115500D02*
G03*
X5400Y115500I-3200J0D01*
G01*
M02*
